G04 #@! TF.GenerationSoftware,KiCad,Pcbnew,(5.0.0)*
G04 #@! TF.CreationDate,2019-02-22T15:53:22+00:00*
G04 #@! TF.ProjectId,Digisynth,4469676973796E74682E6B696361645F,rev?*
G04 #@! TF.SameCoordinates,Original*
G04 #@! TF.FileFunction,Soldermask,Bot*
G04 #@! TF.FilePolarity,Negative*
%FSLAX46Y46*%
G04 Gerber Fmt 4.6, Leading zero omitted, Abs format (unit mm)*
G04 Created by KiCad (PCBNEW (5.0.0)) date 02/22/19 15:53:22*
%MOMM*%
%LPD*%
G01*
G04 APERTURE LIST*
%ADD10R,2.200000X3.400000*%
%ADD11R,3.400000X2.400000*%
%ADD12C,2.900000*%
%ADD13C,0.100000*%
%ADD14C,1.550000*%
%ADD15C,2.000000*%
%ADD16O,2.000000X2.000000*%
%ADD17O,2.600000X2.600000*%
%ADD18R,2.600000X2.600000*%
%ADD19O,2.100000X2.100000*%
%ADD20R,2.100000X2.100000*%
%ADD21C,2.100000*%
%ADD22C,5.400000*%
%ADD23R,1.600000X1.600000*%
%ADD24C,1.600000*%
%ADD25R,2.000000X2.000000*%
%ADD26O,1.800000X1.800000*%
%ADD27C,1.800000*%
%ADD28C,2.400000*%
%ADD29R,7.400000X12.400000*%
%ADD30C,2.600000*%
G04 APERTURE END LIST*
D10*
G04 #@! TO.C,J12*
X53500000Y-10000000D03*
X56000000Y-10000000D03*
X48500000Y-10000000D03*
X46000000Y-10000000D03*
D11*
X51000000Y-5000000D03*
G04 #@! TD*
D12*
G04 #@! TO.C,RV1*
X96500000Y-46000000D03*
X96500000Y-41000000D03*
X96500000Y-36000000D03*
G04 #@! TD*
D13*
G04 #@! TO.C,D4*
G36*
X12871071Y-36501623D02*
X12903781Y-36506475D01*
X12935857Y-36514509D01*
X12966991Y-36525649D01*
X12996884Y-36539787D01*
X13025247Y-36556787D01*
X13051807Y-36576485D01*
X13076308Y-36598692D01*
X13098515Y-36623193D01*
X13118213Y-36649753D01*
X13135213Y-36678116D01*
X13149351Y-36708009D01*
X13160491Y-36739143D01*
X13168525Y-36771219D01*
X13173377Y-36803929D01*
X13175000Y-36836956D01*
X13175000Y-37963044D01*
X13173377Y-37996071D01*
X13168525Y-38028781D01*
X13160491Y-38060857D01*
X13149351Y-38091991D01*
X13135213Y-38121884D01*
X13118213Y-38150247D01*
X13098515Y-38176807D01*
X13076308Y-38201308D01*
X13051807Y-38223515D01*
X13025247Y-38243213D01*
X12996884Y-38260213D01*
X12966991Y-38274351D01*
X12935857Y-38285491D01*
X12903781Y-38293525D01*
X12871071Y-38298377D01*
X12838044Y-38300000D01*
X11961956Y-38300000D01*
X11928929Y-38298377D01*
X11896219Y-38293525D01*
X11864143Y-38285491D01*
X11833009Y-38274351D01*
X11803116Y-38260213D01*
X11774753Y-38243213D01*
X11748193Y-38223515D01*
X11723692Y-38201308D01*
X11701485Y-38176807D01*
X11681787Y-38150247D01*
X11664787Y-38121884D01*
X11650649Y-38091991D01*
X11639509Y-38060857D01*
X11631475Y-38028781D01*
X11626623Y-37996071D01*
X11625000Y-37963044D01*
X11625000Y-36836956D01*
X11626623Y-36803929D01*
X11631475Y-36771219D01*
X11639509Y-36739143D01*
X11650649Y-36708009D01*
X11664787Y-36678116D01*
X11681787Y-36649753D01*
X11701485Y-36623193D01*
X11723692Y-36598692D01*
X11748193Y-36576485D01*
X11774753Y-36556787D01*
X11803116Y-36539787D01*
X11833009Y-36525649D01*
X11864143Y-36514509D01*
X11896219Y-36506475D01*
X11928929Y-36501623D01*
X11961956Y-36500000D01*
X12838044Y-36500000D01*
X12871071Y-36501623D01*
X12871071Y-36501623D01*
G37*
D14*
X12400000Y-37400000D03*
D13*
G36*
X10821071Y-36501623D02*
X10853781Y-36506475D01*
X10885857Y-36514509D01*
X10916991Y-36525649D01*
X10946884Y-36539787D01*
X10975247Y-36556787D01*
X11001807Y-36576485D01*
X11026308Y-36598692D01*
X11048515Y-36623193D01*
X11068213Y-36649753D01*
X11085213Y-36678116D01*
X11099351Y-36708009D01*
X11110491Y-36739143D01*
X11118525Y-36771219D01*
X11123377Y-36803929D01*
X11125000Y-36836956D01*
X11125000Y-37963044D01*
X11123377Y-37996071D01*
X11118525Y-38028781D01*
X11110491Y-38060857D01*
X11099351Y-38091991D01*
X11085213Y-38121884D01*
X11068213Y-38150247D01*
X11048515Y-38176807D01*
X11026308Y-38201308D01*
X11001807Y-38223515D01*
X10975247Y-38243213D01*
X10946884Y-38260213D01*
X10916991Y-38274351D01*
X10885857Y-38285491D01*
X10853781Y-38293525D01*
X10821071Y-38298377D01*
X10788044Y-38300000D01*
X9911956Y-38300000D01*
X9878929Y-38298377D01*
X9846219Y-38293525D01*
X9814143Y-38285491D01*
X9783009Y-38274351D01*
X9753116Y-38260213D01*
X9724753Y-38243213D01*
X9698193Y-38223515D01*
X9673692Y-38201308D01*
X9651485Y-38176807D01*
X9631787Y-38150247D01*
X9614787Y-38121884D01*
X9600649Y-38091991D01*
X9589509Y-38060857D01*
X9581475Y-38028781D01*
X9576623Y-37996071D01*
X9575000Y-37963044D01*
X9575000Y-36836956D01*
X9576623Y-36803929D01*
X9581475Y-36771219D01*
X9589509Y-36739143D01*
X9600649Y-36708009D01*
X9614787Y-36678116D01*
X9631787Y-36649753D01*
X9651485Y-36623193D01*
X9673692Y-36598692D01*
X9698193Y-36576485D01*
X9724753Y-36556787D01*
X9753116Y-36539787D01*
X9783009Y-36525649D01*
X9814143Y-36514509D01*
X9846219Y-36506475D01*
X9878929Y-36501623D01*
X9911956Y-36500000D01*
X10788044Y-36500000D01*
X10821071Y-36501623D01*
X10821071Y-36501623D01*
G37*
D14*
X10350000Y-37400000D03*
G04 #@! TD*
D13*
G04 #@! TO.C,D3*
G36*
X87846071Y-36501623D02*
X87878781Y-36506475D01*
X87910857Y-36514509D01*
X87941991Y-36525649D01*
X87971884Y-36539787D01*
X88000247Y-36556787D01*
X88026807Y-36576485D01*
X88051308Y-36598692D01*
X88073515Y-36623193D01*
X88093213Y-36649753D01*
X88110213Y-36678116D01*
X88124351Y-36708009D01*
X88135491Y-36739143D01*
X88143525Y-36771219D01*
X88148377Y-36803929D01*
X88150000Y-36836956D01*
X88150000Y-37963044D01*
X88148377Y-37996071D01*
X88143525Y-38028781D01*
X88135491Y-38060857D01*
X88124351Y-38091991D01*
X88110213Y-38121884D01*
X88093213Y-38150247D01*
X88073515Y-38176807D01*
X88051308Y-38201308D01*
X88026807Y-38223515D01*
X88000247Y-38243213D01*
X87971884Y-38260213D01*
X87941991Y-38274351D01*
X87910857Y-38285491D01*
X87878781Y-38293525D01*
X87846071Y-38298377D01*
X87813044Y-38300000D01*
X86936956Y-38300000D01*
X86903929Y-38298377D01*
X86871219Y-38293525D01*
X86839143Y-38285491D01*
X86808009Y-38274351D01*
X86778116Y-38260213D01*
X86749753Y-38243213D01*
X86723193Y-38223515D01*
X86698692Y-38201308D01*
X86676485Y-38176807D01*
X86656787Y-38150247D01*
X86639787Y-38121884D01*
X86625649Y-38091991D01*
X86614509Y-38060857D01*
X86606475Y-38028781D01*
X86601623Y-37996071D01*
X86600000Y-37963044D01*
X86600000Y-36836956D01*
X86601623Y-36803929D01*
X86606475Y-36771219D01*
X86614509Y-36739143D01*
X86625649Y-36708009D01*
X86639787Y-36678116D01*
X86656787Y-36649753D01*
X86676485Y-36623193D01*
X86698692Y-36598692D01*
X86723193Y-36576485D01*
X86749753Y-36556787D01*
X86778116Y-36539787D01*
X86808009Y-36525649D01*
X86839143Y-36514509D01*
X86871219Y-36506475D01*
X86903929Y-36501623D01*
X86936956Y-36500000D01*
X87813044Y-36500000D01*
X87846071Y-36501623D01*
X87846071Y-36501623D01*
G37*
D14*
X87375000Y-37400000D03*
D13*
G36*
X89896071Y-36501623D02*
X89928781Y-36506475D01*
X89960857Y-36514509D01*
X89991991Y-36525649D01*
X90021884Y-36539787D01*
X90050247Y-36556787D01*
X90076807Y-36576485D01*
X90101308Y-36598692D01*
X90123515Y-36623193D01*
X90143213Y-36649753D01*
X90160213Y-36678116D01*
X90174351Y-36708009D01*
X90185491Y-36739143D01*
X90193525Y-36771219D01*
X90198377Y-36803929D01*
X90200000Y-36836956D01*
X90200000Y-37963044D01*
X90198377Y-37996071D01*
X90193525Y-38028781D01*
X90185491Y-38060857D01*
X90174351Y-38091991D01*
X90160213Y-38121884D01*
X90143213Y-38150247D01*
X90123515Y-38176807D01*
X90101308Y-38201308D01*
X90076807Y-38223515D01*
X90050247Y-38243213D01*
X90021884Y-38260213D01*
X89991991Y-38274351D01*
X89960857Y-38285491D01*
X89928781Y-38293525D01*
X89896071Y-38298377D01*
X89863044Y-38300000D01*
X88986956Y-38300000D01*
X88953929Y-38298377D01*
X88921219Y-38293525D01*
X88889143Y-38285491D01*
X88858009Y-38274351D01*
X88828116Y-38260213D01*
X88799753Y-38243213D01*
X88773193Y-38223515D01*
X88748692Y-38201308D01*
X88726485Y-38176807D01*
X88706787Y-38150247D01*
X88689787Y-38121884D01*
X88675649Y-38091991D01*
X88664509Y-38060857D01*
X88656475Y-38028781D01*
X88651623Y-37996071D01*
X88650000Y-37963044D01*
X88650000Y-36836956D01*
X88651623Y-36803929D01*
X88656475Y-36771219D01*
X88664509Y-36739143D01*
X88675649Y-36708009D01*
X88689787Y-36678116D01*
X88706787Y-36649753D01*
X88726485Y-36623193D01*
X88748692Y-36598692D01*
X88773193Y-36576485D01*
X88799753Y-36556787D01*
X88828116Y-36539787D01*
X88858009Y-36525649D01*
X88889143Y-36514509D01*
X88921219Y-36506475D01*
X88953929Y-36501623D01*
X88986956Y-36500000D01*
X89863044Y-36500000D01*
X89896071Y-36501623D01*
X89896071Y-36501623D01*
G37*
D14*
X89425000Y-37400000D03*
G04 #@! TD*
D13*
G04 #@! TO.C,R9*
G36*
X87946071Y-39001623D02*
X87978781Y-39006475D01*
X88010857Y-39014509D01*
X88041991Y-39025649D01*
X88071884Y-39039787D01*
X88100247Y-39056787D01*
X88126807Y-39076485D01*
X88151308Y-39098692D01*
X88173515Y-39123193D01*
X88193213Y-39149753D01*
X88210213Y-39178116D01*
X88224351Y-39208009D01*
X88235491Y-39239143D01*
X88243525Y-39271219D01*
X88248377Y-39303929D01*
X88250000Y-39336956D01*
X88250000Y-40463044D01*
X88248377Y-40496071D01*
X88243525Y-40528781D01*
X88235491Y-40560857D01*
X88224351Y-40591991D01*
X88210213Y-40621884D01*
X88193213Y-40650247D01*
X88173515Y-40676807D01*
X88151308Y-40701308D01*
X88126807Y-40723515D01*
X88100247Y-40743213D01*
X88071884Y-40760213D01*
X88041991Y-40774351D01*
X88010857Y-40785491D01*
X87978781Y-40793525D01*
X87946071Y-40798377D01*
X87913044Y-40800000D01*
X87036956Y-40800000D01*
X87003929Y-40798377D01*
X86971219Y-40793525D01*
X86939143Y-40785491D01*
X86908009Y-40774351D01*
X86878116Y-40760213D01*
X86849753Y-40743213D01*
X86823193Y-40723515D01*
X86798692Y-40701308D01*
X86776485Y-40676807D01*
X86756787Y-40650247D01*
X86739787Y-40621884D01*
X86725649Y-40591991D01*
X86714509Y-40560857D01*
X86706475Y-40528781D01*
X86701623Y-40496071D01*
X86700000Y-40463044D01*
X86700000Y-39336956D01*
X86701623Y-39303929D01*
X86706475Y-39271219D01*
X86714509Y-39239143D01*
X86725649Y-39208009D01*
X86739787Y-39178116D01*
X86756787Y-39149753D01*
X86776485Y-39123193D01*
X86798692Y-39098692D01*
X86823193Y-39076485D01*
X86849753Y-39056787D01*
X86878116Y-39039787D01*
X86908009Y-39025649D01*
X86939143Y-39014509D01*
X86971219Y-39006475D01*
X87003929Y-39001623D01*
X87036956Y-39000000D01*
X87913044Y-39000000D01*
X87946071Y-39001623D01*
X87946071Y-39001623D01*
G37*
D14*
X87475000Y-39900000D03*
D13*
G36*
X89996071Y-39001623D02*
X90028781Y-39006475D01*
X90060857Y-39014509D01*
X90091991Y-39025649D01*
X90121884Y-39039787D01*
X90150247Y-39056787D01*
X90176807Y-39076485D01*
X90201308Y-39098692D01*
X90223515Y-39123193D01*
X90243213Y-39149753D01*
X90260213Y-39178116D01*
X90274351Y-39208009D01*
X90285491Y-39239143D01*
X90293525Y-39271219D01*
X90298377Y-39303929D01*
X90300000Y-39336956D01*
X90300000Y-40463044D01*
X90298377Y-40496071D01*
X90293525Y-40528781D01*
X90285491Y-40560857D01*
X90274351Y-40591991D01*
X90260213Y-40621884D01*
X90243213Y-40650247D01*
X90223515Y-40676807D01*
X90201308Y-40701308D01*
X90176807Y-40723515D01*
X90150247Y-40743213D01*
X90121884Y-40760213D01*
X90091991Y-40774351D01*
X90060857Y-40785491D01*
X90028781Y-40793525D01*
X89996071Y-40798377D01*
X89963044Y-40800000D01*
X89086956Y-40800000D01*
X89053929Y-40798377D01*
X89021219Y-40793525D01*
X88989143Y-40785491D01*
X88958009Y-40774351D01*
X88928116Y-40760213D01*
X88899753Y-40743213D01*
X88873193Y-40723515D01*
X88848692Y-40701308D01*
X88826485Y-40676807D01*
X88806787Y-40650247D01*
X88789787Y-40621884D01*
X88775649Y-40591991D01*
X88764509Y-40560857D01*
X88756475Y-40528781D01*
X88751623Y-40496071D01*
X88750000Y-40463044D01*
X88750000Y-39336956D01*
X88751623Y-39303929D01*
X88756475Y-39271219D01*
X88764509Y-39239143D01*
X88775649Y-39208009D01*
X88789787Y-39178116D01*
X88806787Y-39149753D01*
X88826485Y-39123193D01*
X88848692Y-39098692D01*
X88873193Y-39076485D01*
X88899753Y-39056787D01*
X88928116Y-39039787D01*
X88958009Y-39025649D01*
X88989143Y-39014509D01*
X89021219Y-39006475D01*
X89053929Y-39001623D01*
X89086956Y-39000000D01*
X89963044Y-39000000D01*
X89996071Y-39001623D01*
X89996071Y-39001623D01*
G37*
D14*
X89525000Y-39900000D03*
G04 #@! TD*
D13*
G04 #@! TO.C,R10*
G36*
X12896071Y-39001623D02*
X12928781Y-39006475D01*
X12960857Y-39014509D01*
X12991991Y-39025649D01*
X13021884Y-39039787D01*
X13050247Y-39056787D01*
X13076807Y-39076485D01*
X13101308Y-39098692D01*
X13123515Y-39123193D01*
X13143213Y-39149753D01*
X13160213Y-39178116D01*
X13174351Y-39208009D01*
X13185491Y-39239143D01*
X13193525Y-39271219D01*
X13198377Y-39303929D01*
X13200000Y-39336956D01*
X13200000Y-40463044D01*
X13198377Y-40496071D01*
X13193525Y-40528781D01*
X13185491Y-40560857D01*
X13174351Y-40591991D01*
X13160213Y-40621884D01*
X13143213Y-40650247D01*
X13123515Y-40676807D01*
X13101308Y-40701308D01*
X13076807Y-40723515D01*
X13050247Y-40743213D01*
X13021884Y-40760213D01*
X12991991Y-40774351D01*
X12960857Y-40785491D01*
X12928781Y-40793525D01*
X12896071Y-40798377D01*
X12863044Y-40800000D01*
X11986956Y-40800000D01*
X11953929Y-40798377D01*
X11921219Y-40793525D01*
X11889143Y-40785491D01*
X11858009Y-40774351D01*
X11828116Y-40760213D01*
X11799753Y-40743213D01*
X11773193Y-40723515D01*
X11748692Y-40701308D01*
X11726485Y-40676807D01*
X11706787Y-40650247D01*
X11689787Y-40621884D01*
X11675649Y-40591991D01*
X11664509Y-40560857D01*
X11656475Y-40528781D01*
X11651623Y-40496071D01*
X11650000Y-40463044D01*
X11650000Y-39336956D01*
X11651623Y-39303929D01*
X11656475Y-39271219D01*
X11664509Y-39239143D01*
X11675649Y-39208009D01*
X11689787Y-39178116D01*
X11706787Y-39149753D01*
X11726485Y-39123193D01*
X11748692Y-39098692D01*
X11773193Y-39076485D01*
X11799753Y-39056787D01*
X11828116Y-39039787D01*
X11858009Y-39025649D01*
X11889143Y-39014509D01*
X11921219Y-39006475D01*
X11953929Y-39001623D01*
X11986956Y-39000000D01*
X12863044Y-39000000D01*
X12896071Y-39001623D01*
X12896071Y-39001623D01*
G37*
D14*
X12425000Y-39900000D03*
D13*
G36*
X10846071Y-39001623D02*
X10878781Y-39006475D01*
X10910857Y-39014509D01*
X10941991Y-39025649D01*
X10971884Y-39039787D01*
X11000247Y-39056787D01*
X11026807Y-39076485D01*
X11051308Y-39098692D01*
X11073515Y-39123193D01*
X11093213Y-39149753D01*
X11110213Y-39178116D01*
X11124351Y-39208009D01*
X11135491Y-39239143D01*
X11143525Y-39271219D01*
X11148377Y-39303929D01*
X11150000Y-39336956D01*
X11150000Y-40463044D01*
X11148377Y-40496071D01*
X11143525Y-40528781D01*
X11135491Y-40560857D01*
X11124351Y-40591991D01*
X11110213Y-40621884D01*
X11093213Y-40650247D01*
X11073515Y-40676807D01*
X11051308Y-40701308D01*
X11026807Y-40723515D01*
X11000247Y-40743213D01*
X10971884Y-40760213D01*
X10941991Y-40774351D01*
X10910857Y-40785491D01*
X10878781Y-40793525D01*
X10846071Y-40798377D01*
X10813044Y-40800000D01*
X9936956Y-40800000D01*
X9903929Y-40798377D01*
X9871219Y-40793525D01*
X9839143Y-40785491D01*
X9808009Y-40774351D01*
X9778116Y-40760213D01*
X9749753Y-40743213D01*
X9723193Y-40723515D01*
X9698692Y-40701308D01*
X9676485Y-40676807D01*
X9656787Y-40650247D01*
X9639787Y-40621884D01*
X9625649Y-40591991D01*
X9614509Y-40560857D01*
X9606475Y-40528781D01*
X9601623Y-40496071D01*
X9600000Y-40463044D01*
X9600000Y-39336956D01*
X9601623Y-39303929D01*
X9606475Y-39271219D01*
X9614509Y-39239143D01*
X9625649Y-39208009D01*
X9639787Y-39178116D01*
X9656787Y-39149753D01*
X9676485Y-39123193D01*
X9698692Y-39098692D01*
X9723193Y-39076485D01*
X9749753Y-39056787D01*
X9778116Y-39039787D01*
X9808009Y-39025649D01*
X9839143Y-39014509D01*
X9871219Y-39006475D01*
X9903929Y-39001623D01*
X9936956Y-39000000D01*
X10813044Y-39000000D01*
X10846071Y-39001623D01*
X10846071Y-39001623D01*
G37*
D14*
X10375000Y-39900000D03*
G04 #@! TD*
D15*
G04 #@! TO.C,R8*
X48500000Y-17500000D03*
D16*
X38340000Y-17500000D03*
G04 #@! TD*
G04 #@! TO.C,R7*
X48500000Y-21500000D03*
D15*
X38340000Y-21500000D03*
G04 #@! TD*
D16*
G04 #@! TO.C,R2*
X63840000Y-25700000D03*
D15*
X74000000Y-25700000D03*
G04 #@! TD*
G04 #@! TO.C,R5*
X67990000Y-17500000D03*
D16*
X78150000Y-17500000D03*
G04 #@! TD*
D15*
G04 #@! TO.C,R6*
X68000000Y-21500000D03*
D16*
X78160000Y-21500000D03*
G04 #@! TD*
D17*
G04 #@! TO.C,D5*
X52980000Y-28200000D03*
D18*
X60600000Y-28200000D03*
G04 #@! TD*
D19*
G04 #@! TO.C,J7*
X80590000Y-36535000D03*
X80590000Y-39075000D03*
D20*
X80590000Y-41615000D03*
G04 #@! TD*
D19*
G04 #@! TO.C,J2*
X15590000Y-36745000D03*
X15590000Y-39285000D03*
D20*
X15590000Y-41825000D03*
G04 #@! TD*
D21*
G04 #@! TO.C,J3*
X29340000Y-41735000D03*
D19*
X29340000Y-39195000D03*
X31880000Y-41735000D03*
X31880000Y-39195000D03*
X34420000Y-41735000D03*
X34420000Y-39195000D03*
G04 #@! TD*
D21*
G04 #@! TO.C,J6*
X61640000Y-41735000D03*
D19*
X61640000Y-39195000D03*
X64180000Y-41735000D03*
X64180000Y-39195000D03*
X66720000Y-41735000D03*
X66720000Y-39195000D03*
G04 #@! TD*
D20*
G04 #@! TO.C,J9*
X15750000Y-18000000D03*
D19*
X15750000Y-15460000D03*
X18290000Y-18000000D03*
X18290000Y-15460000D03*
X20830000Y-18000000D03*
X20830000Y-15460000D03*
G04 #@! TD*
D20*
G04 #@! TO.C,J10*
X3750000Y-18000000D03*
D19*
X3750000Y-15460000D03*
X6290000Y-18000000D03*
X6290000Y-15460000D03*
X8830000Y-18000000D03*
X8830000Y-15460000D03*
G04 #@! TD*
G04 #@! TO.C,J11*
X34540000Y-18260000D03*
X34540000Y-20800000D03*
X32000000Y-18260000D03*
D21*
X32000000Y-20800000D03*
G04 #@! TD*
D19*
G04 #@! TO.C,J1*
X20550000Y-39195000D03*
X23090000Y-39195000D03*
X20550000Y-41735000D03*
D21*
X23090000Y-41735000D03*
G04 #@! TD*
D19*
G04 #@! TO.C,J8*
X52840000Y-20785000D03*
X52840000Y-18245000D03*
X55380000Y-20785000D03*
D21*
X55380000Y-18245000D03*
G04 #@! TD*
D19*
G04 #@! TO.C,J4*
X49340000Y-25660000D03*
X49340000Y-28200000D03*
X46800000Y-25660000D03*
D21*
X46800000Y-28200000D03*
G04 #@! TD*
D19*
G04 #@! TO.C,J5*
X73000000Y-39195000D03*
X75540000Y-39195000D03*
X73000000Y-41735000D03*
D21*
X75540000Y-41735000D03*
G04 #@! TD*
D22*
G04 #@! TO.C,BT1*
X64912501Y-4000000D03*
X36912501Y-4000000D03*
G04 #@! TD*
D18*
G04 #@! TO.C,D1*
X60600000Y-25200000D03*
D17*
X52980000Y-25200000D03*
G04 #@! TD*
D19*
G04 #@! TO.C,SW2*
X4760000Y-37520000D03*
X7300000Y-37520000D03*
X4760000Y-40060000D03*
X7300000Y-40060000D03*
X4760000Y-42600000D03*
D20*
X7300000Y-42600000D03*
G04 #@! TD*
D12*
G04 #@! TO.C,RV2*
X96500000Y-28500000D03*
X96500000Y-23500000D03*
X96500000Y-18500000D03*
G04 #@! TD*
D23*
G04 #@! TO.C,C1*
X22840000Y-34535000D03*
D24*
X22840000Y-32535000D03*
G04 #@! TD*
D15*
G04 #@! TO.C,C2*
X27840000Y-32535000D03*
X27840000Y-27535000D03*
G04 #@! TD*
G04 #@! TO.C,C3*
X63890000Y-29035000D03*
X63890000Y-34035000D03*
G04 #@! TD*
G04 #@! TO.C,C4*
X67890000Y-34035000D03*
X67890000Y-29035000D03*
G04 #@! TD*
D25*
G04 #@! TO.C,C5*
X15590000Y-29285000D03*
D15*
X18090000Y-29285000D03*
G04 #@! TD*
D26*
G04 #@! TO.C,R1*
X26860000Y-4300000D03*
D27*
X29400000Y-4300000D03*
G04 #@! TD*
G04 #@! TO.C,R3*
X70700000Y-4300000D03*
D26*
X73240000Y-4300000D03*
G04 #@! TD*
D28*
G04 #@! TO.C,SW1*
X8275000Y-30585000D03*
X3775000Y-30585000D03*
X8275000Y-24085000D03*
X3775000Y-24085000D03*
G04 #@! TD*
D29*
G04 #@! TO.C,TP1*
X5900000Y-6100000D03*
X16900000Y-6100000D03*
G04 #@! TD*
G04 #@! TO.C,TP2*
X94100000Y-6100000D03*
X83100000Y-6100000D03*
G04 #@! TD*
D25*
G04 #@! TO.C,U1*
X40390000Y-42435000D03*
D16*
X55630000Y-34815000D03*
X42930000Y-42435000D03*
X53090000Y-34815000D03*
X45470000Y-42435000D03*
X50550000Y-34815000D03*
X48010000Y-42435000D03*
X48010000Y-34815000D03*
X50550000Y-42435000D03*
X45470000Y-34815000D03*
X53090000Y-42435000D03*
X42930000Y-34815000D03*
X55630000Y-42435000D03*
X40390000Y-34815000D03*
G04 #@! TD*
D30*
G04 #@! TO.C,J13*
X33800000Y-25100000D03*
G04 #@! TD*
G04 #@! TO.C,J14*
X40000000Y-9000000D03*
G04 #@! TD*
D20*
G04 #@! TO.C,J15*
X37750000Y-31250000D03*
D19*
X40290000Y-31250000D03*
X42830000Y-31250000D03*
G04 #@! TD*
G04 #@! TO.C,J16*
X58330000Y-31250000D03*
X55790000Y-31250000D03*
D20*
X53250000Y-31250000D03*
G04 #@! TD*
M02*
