M48
;DRILL file {KiCad (5.0.0)} date 02/22/19 15:53:29
;FORMAT={-:-/ absolute / inch / decimal}
FMAT,2
INCH,TZ
T1C0.0157
T2C0.0236
T3C0.0276
T4C0.0315
T5C0.0394
T6C0.0413
T7C0.0433
T8C0.0591
T9C0.0610
T10C0.1378
T11C0.1575
%
G90
G05
M72
T1
X1.0827Y-1.437
X1.3386Y-1.4173
X2.2835Y-1.5748
X3.2283Y-0.8661
X3.2874Y-0.8071
X3.3465Y-0.748
X3.4055Y-1.0433
X3.4646Y-0.9843
X3.5236Y-0.9252
T2
X0.8992Y-1.2809
X0.8992Y-1.3596
T3
X2.7835Y-0.1693
X2.8835Y-0.1693
X1.0575Y-0.1693
X1.1575Y-0.1693
T4
X2.5154Y-1.1431
X2.5154Y-1.34
X0.6138Y-1.153
X0.7122Y-1.153
X1.5094Y-0.8465
X1.9094Y-0.8465
X1.0961Y-1.0841
X1.0961Y-1.2809
X1.5902Y-1.3707
X1.5902Y-1.6707
X1.6902Y-1.3707
X1.6902Y-1.6707
X1.7902Y-1.3707
X1.7902Y-1.6707
X1.8902Y-1.3707
X1.8902Y-1.6707
X1.9902Y-1.3707
X1.9902Y-1.6707
X2.0902Y-1.3707
X2.0902Y-1.6707
X2.1902Y-1.3707
X2.1902Y-1.6707
X2.5134Y-1.0118
X2.9134Y-1.0118
X1.5094Y-0.689
X1.9094Y-0.689
X2.6728Y-1.1431
X2.6728Y-1.34
X2.6768Y-0.689
X3.0768Y-0.689
X2.6772Y-0.8465
X3.0772Y-0.8465
T5
X0.8091Y-1.5431
X0.8091Y-1.6431
X0.9091Y-1.5431
X0.9091Y-1.6431
X1.2598Y-0.7189
X1.2598Y-0.8189
X1.3598Y-0.7189
X1.3598Y-0.8189
X0.6201Y-0.6087
X0.6201Y-0.7087
X0.7201Y-0.6087
X0.7201Y-0.7087
X0.8201Y-0.6087
X0.8201Y-0.7087
X1.4862Y-1.2303
X1.5862Y-1.2303
X1.6862Y-1.2303
X2.4268Y-1.5431
X2.4268Y-1.6431
X2.5268Y-1.5431
X2.5268Y-1.6431
X2.6268Y-1.5431
X2.6268Y-1.6431
X3.1728Y-1.4384
X3.1728Y-1.5384
X3.1728Y-1.6384
X2.0965Y-1.2303
X2.1965Y-1.2303
X2.2965Y-1.2303
X0.1874Y-1.4772
X0.1874Y-1.5772
X0.1874Y-1.6772
X0.2874Y-1.4772
X0.2874Y-1.5772
X0.2874Y-1.6772
X0.1476Y-0.6087
X0.1476Y-0.7087
X0.2476Y-0.6087
X0.2476Y-0.7087
X0.3476Y-0.6087
X0.3476Y-0.7087
X2.874Y-1.5431
X2.874Y-1.6431
X2.974Y-1.5431
X2.974Y-1.6431
X1.8425Y-1.0102
X1.8425Y-1.1102
X1.9425Y-1.0102
X1.9425Y-1.1102
X0.6138Y-1.4467
X0.6138Y-1.5467
X0.6138Y-1.6467
X2.0803Y-0.7183
X2.0803Y-0.8183
X2.1803Y-0.7183
X2.1803Y-0.8183
X1.1551Y-1.5431
X1.1551Y-1.6431
X1.2551Y-1.5431
X1.2551Y-1.6431
X1.3551Y-1.5431
X1.3551Y-1.6431
T6
X3.7992Y-0.7283
X3.7992Y-0.9252
X3.7992Y-1.122
X3.7992Y-1.4173
X3.7992Y-1.6142
X3.7992Y-1.811
T7
X2.0858Y-1.1102
X2.3858Y-1.1102
X2.0858Y-0.9921
X2.3858Y-0.9921
X0.1486Y-0.9482
X0.1486Y-1.2041
X0.3258Y-0.9482
X0.3258Y-1.2041
T8
X1.3307Y-0.9882
X1.5748Y-0.3543
T9
X1.811Y-0.3937
X1.9094Y-0.3937
X2.0079Y-0.1969
X2.1063Y-0.3937
X2.2047Y-0.3937
T10
X1.4532Y-0.1575
X2.5556Y-0.1575
T11
X0.2323Y-0.3386
X0.6654Y-0.3386
X3.2717Y-0.3386
X3.7047Y-0.3386
T0
M30
