G04 #@! TF.GenerationSoftware,KiCad,Pcbnew,(5.0.0)*
G04 #@! TF.CreationDate,2019-02-22T15:53:22+00:00*
G04 #@! TF.ProjectId,Digisynth,4469676973796E74682E6B696361645F,rev?*
G04 #@! TF.SameCoordinates,Original*
G04 #@! TF.FileFunction,Soldermask,Top*
G04 #@! TF.FilePolarity,Negative*
%FSLAX46Y46*%
G04 Gerber Fmt 4.6, Leading zero omitted, Abs format (unit mm)*
G04 Created by KiCad (PCBNEW (5.0.0)) date 02/22/19 15:53:22*
%MOMM*%
%LPD*%
G01*
G04 APERTURE LIST*
%ADD10R,2.200000X3.400000*%
%ADD11R,3.400000X2.400000*%
%ADD12C,2.900000*%
%ADD13C,2.000000*%
%ADD14O,2.000000X2.000000*%
%ADD15O,2.600000X2.600000*%
%ADD16R,2.600000X2.600000*%
%ADD17C,0.100000*%
%ADD18C,1.550000*%
%ADD19O,2.100000X2.100000*%
%ADD20R,2.100000X2.100000*%
%ADD21C,2.100000*%
%ADD22C,5.400000*%
%ADD23R,1.600000X1.600000*%
%ADD24C,1.600000*%
%ADD25R,2.000000X2.000000*%
%ADD26O,1.800000X1.800000*%
%ADD27C,1.800000*%
%ADD28C,2.400000*%
%ADD29R,7.400000X12.400000*%
%ADD30C,2.600000*%
G04 APERTURE END LIST*
D10*
G04 #@! TO.C,J12*
X53500000Y-10000000D03*
X56000000Y-10000000D03*
X48500000Y-10000000D03*
X46000000Y-10000000D03*
D11*
X51000000Y-5000000D03*
G04 #@! TD*
D12*
G04 #@! TO.C,RV1*
X96500000Y-46000000D03*
X96500000Y-41000000D03*
X96500000Y-36000000D03*
G04 #@! TD*
D13*
G04 #@! TO.C,R8*
X48500000Y-17500000D03*
D14*
X38340000Y-17500000D03*
G04 #@! TD*
G04 #@! TO.C,R7*
X48500000Y-21500000D03*
D13*
X38340000Y-21500000D03*
G04 #@! TD*
D14*
G04 #@! TO.C,R2*
X63840000Y-25700000D03*
D13*
X74000000Y-25700000D03*
G04 #@! TD*
G04 #@! TO.C,R5*
X67990000Y-17500000D03*
D14*
X78150000Y-17500000D03*
G04 #@! TD*
D13*
G04 #@! TO.C,R6*
X68000000Y-21500000D03*
D14*
X78160000Y-21500000D03*
G04 #@! TD*
D15*
G04 #@! TO.C,D5*
X52980000Y-28200000D03*
D16*
X60600000Y-28200000D03*
G04 #@! TD*
D17*
G04 #@! TO.C,R4*
G36*
X55696071Y-37501623D02*
X55728781Y-37506475D01*
X55760857Y-37514509D01*
X55791991Y-37525649D01*
X55821884Y-37539787D01*
X55850247Y-37556787D01*
X55876807Y-37576485D01*
X55901308Y-37598692D01*
X55923515Y-37623193D01*
X55943213Y-37649753D01*
X55960213Y-37678116D01*
X55974351Y-37708009D01*
X55985491Y-37739143D01*
X55993525Y-37771219D01*
X55998377Y-37803929D01*
X56000000Y-37836956D01*
X56000000Y-38963044D01*
X55998377Y-38996071D01*
X55993525Y-39028781D01*
X55985491Y-39060857D01*
X55974351Y-39091991D01*
X55960213Y-39121884D01*
X55943213Y-39150247D01*
X55923515Y-39176807D01*
X55901308Y-39201308D01*
X55876807Y-39223515D01*
X55850247Y-39243213D01*
X55821884Y-39260213D01*
X55791991Y-39274351D01*
X55760857Y-39285491D01*
X55728781Y-39293525D01*
X55696071Y-39298377D01*
X55663044Y-39300000D01*
X54786956Y-39300000D01*
X54753929Y-39298377D01*
X54721219Y-39293525D01*
X54689143Y-39285491D01*
X54658009Y-39274351D01*
X54628116Y-39260213D01*
X54599753Y-39243213D01*
X54573193Y-39223515D01*
X54548692Y-39201308D01*
X54526485Y-39176807D01*
X54506787Y-39150247D01*
X54489787Y-39121884D01*
X54475649Y-39091991D01*
X54464509Y-39060857D01*
X54456475Y-39028781D01*
X54451623Y-38996071D01*
X54450000Y-38963044D01*
X54450000Y-37836956D01*
X54451623Y-37803929D01*
X54456475Y-37771219D01*
X54464509Y-37739143D01*
X54475649Y-37708009D01*
X54489787Y-37678116D01*
X54506787Y-37649753D01*
X54526485Y-37623193D01*
X54548692Y-37598692D01*
X54573193Y-37576485D01*
X54599753Y-37556787D01*
X54628116Y-37539787D01*
X54658009Y-37525649D01*
X54689143Y-37514509D01*
X54721219Y-37506475D01*
X54753929Y-37501623D01*
X54786956Y-37500000D01*
X55663044Y-37500000D01*
X55696071Y-37501623D01*
X55696071Y-37501623D01*
G37*
D18*
X55225000Y-38400000D03*
D17*
G36*
X53646071Y-37501623D02*
X53678781Y-37506475D01*
X53710857Y-37514509D01*
X53741991Y-37525649D01*
X53771884Y-37539787D01*
X53800247Y-37556787D01*
X53826807Y-37576485D01*
X53851308Y-37598692D01*
X53873515Y-37623193D01*
X53893213Y-37649753D01*
X53910213Y-37678116D01*
X53924351Y-37708009D01*
X53935491Y-37739143D01*
X53943525Y-37771219D01*
X53948377Y-37803929D01*
X53950000Y-37836956D01*
X53950000Y-38963044D01*
X53948377Y-38996071D01*
X53943525Y-39028781D01*
X53935491Y-39060857D01*
X53924351Y-39091991D01*
X53910213Y-39121884D01*
X53893213Y-39150247D01*
X53873515Y-39176807D01*
X53851308Y-39201308D01*
X53826807Y-39223515D01*
X53800247Y-39243213D01*
X53771884Y-39260213D01*
X53741991Y-39274351D01*
X53710857Y-39285491D01*
X53678781Y-39293525D01*
X53646071Y-39298377D01*
X53613044Y-39300000D01*
X52736956Y-39300000D01*
X52703929Y-39298377D01*
X52671219Y-39293525D01*
X52639143Y-39285491D01*
X52608009Y-39274351D01*
X52578116Y-39260213D01*
X52549753Y-39243213D01*
X52523193Y-39223515D01*
X52498692Y-39201308D01*
X52476485Y-39176807D01*
X52456787Y-39150247D01*
X52439787Y-39121884D01*
X52425649Y-39091991D01*
X52414509Y-39060857D01*
X52406475Y-39028781D01*
X52401623Y-38996071D01*
X52400000Y-38963044D01*
X52400000Y-37836956D01*
X52401623Y-37803929D01*
X52406475Y-37771219D01*
X52414509Y-37739143D01*
X52425649Y-37708009D01*
X52439787Y-37678116D01*
X52456787Y-37649753D01*
X52476485Y-37623193D01*
X52498692Y-37598692D01*
X52523193Y-37576485D01*
X52549753Y-37556787D01*
X52578116Y-37539787D01*
X52608009Y-37525649D01*
X52639143Y-37514509D01*
X52671219Y-37506475D01*
X52703929Y-37501623D01*
X52736956Y-37500000D01*
X53613044Y-37500000D01*
X53646071Y-37501623D01*
X53646071Y-37501623D01*
G37*
D18*
X53175000Y-38400000D03*
G04 #@! TD*
D17*
G04 #@! TO.C,D2*
G36*
X47561071Y-37536623D02*
X47593781Y-37541475D01*
X47625857Y-37549509D01*
X47656991Y-37560649D01*
X47686884Y-37574787D01*
X47715247Y-37591787D01*
X47741807Y-37611485D01*
X47766308Y-37633692D01*
X47788515Y-37658193D01*
X47808213Y-37684753D01*
X47825213Y-37713116D01*
X47839351Y-37743009D01*
X47850491Y-37774143D01*
X47858525Y-37806219D01*
X47863377Y-37838929D01*
X47865000Y-37871956D01*
X47865000Y-38998044D01*
X47863377Y-39031071D01*
X47858525Y-39063781D01*
X47850491Y-39095857D01*
X47839351Y-39126991D01*
X47825213Y-39156884D01*
X47808213Y-39185247D01*
X47788515Y-39211807D01*
X47766308Y-39236308D01*
X47741807Y-39258515D01*
X47715247Y-39278213D01*
X47686884Y-39295213D01*
X47656991Y-39309351D01*
X47625857Y-39320491D01*
X47593781Y-39328525D01*
X47561071Y-39333377D01*
X47528044Y-39335000D01*
X46651956Y-39335000D01*
X46618929Y-39333377D01*
X46586219Y-39328525D01*
X46554143Y-39320491D01*
X46523009Y-39309351D01*
X46493116Y-39295213D01*
X46464753Y-39278213D01*
X46438193Y-39258515D01*
X46413692Y-39236308D01*
X46391485Y-39211807D01*
X46371787Y-39185247D01*
X46354787Y-39156884D01*
X46340649Y-39126991D01*
X46329509Y-39095857D01*
X46321475Y-39063781D01*
X46316623Y-39031071D01*
X46315000Y-38998044D01*
X46315000Y-37871956D01*
X46316623Y-37838929D01*
X46321475Y-37806219D01*
X46329509Y-37774143D01*
X46340649Y-37743009D01*
X46354787Y-37713116D01*
X46371787Y-37684753D01*
X46391485Y-37658193D01*
X46413692Y-37633692D01*
X46438193Y-37611485D01*
X46464753Y-37591787D01*
X46493116Y-37574787D01*
X46523009Y-37560649D01*
X46554143Y-37549509D01*
X46586219Y-37541475D01*
X46618929Y-37536623D01*
X46651956Y-37535000D01*
X47528044Y-37535000D01*
X47561071Y-37536623D01*
X47561071Y-37536623D01*
G37*
D18*
X47090000Y-38435000D03*
D17*
G36*
X49611071Y-37536623D02*
X49643781Y-37541475D01*
X49675857Y-37549509D01*
X49706991Y-37560649D01*
X49736884Y-37574787D01*
X49765247Y-37591787D01*
X49791807Y-37611485D01*
X49816308Y-37633692D01*
X49838515Y-37658193D01*
X49858213Y-37684753D01*
X49875213Y-37713116D01*
X49889351Y-37743009D01*
X49900491Y-37774143D01*
X49908525Y-37806219D01*
X49913377Y-37838929D01*
X49915000Y-37871956D01*
X49915000Y-38998044D01*
X49913377Y-39031071D01*
X49908525Y-39063781D01*
X49900491Y-39095857D01*
X49889351Y-39126991D01*
X49875213Y-39156884D01*
X49858213Y-39185247D01*
X49838515Y-39211807D01*
X49816308Y-39236308D01*
X49791807Y-39258515D01*
X49765247Y-39278213D01*
X49736884Y-39295213D01*
X49706991Y-39309351D01*
X49675857Y-39320491D01*
X49643781Y-39328525D01*
X49611071Y-39333377D01*
X49578044Y-39335000D01*
X48701956Y-39335000D01*
X48668929Y-39333377D01*
X48636219Y-39328525D01*
X48604143Y-39320491D01*
X48573009Y-39309351D01*
X48543116Y-39295213D01*
X48514753Y-39278213D01*
X48488193Y-39258515D01*
X48463692Y-39236308D01*
X48441485Y-39211807D01*
X48421787Y-39185247D01*
X48404787Y-39156884D01*
X48390649Y-39126991D01*
X48379509Y-39095857D01*
X48371475Y-39063781D01*
X48366623Y-39031071D01*
X48365000Y-38998044D01*
X48365000Y-37871956D01*
X48366623Y-37838929D01*
X48371475Y-37806219D01*
X48379509Y-37774143D01*
X48390649Y-37743009D01*
X48404787Y-37713116D01*
X48421787Y-37684753D01*
X48441485Y-37658193D01*
X48463692Y-37633692D01*
X48488193Y-37611485D01*
X48514753Y-37591787D01*
X48543116Y-37574787D01*
X48573009Y-37560649D01*
X48604143Y-37549509D01*
X48636219Y-37541475D01*
X48668929Y-37536623D01*
X48701956Y-37535000D01*
X49578044Y-37535000D01*
X49611071Y-37536623D01*
X49611071Y-37536623D01*
G37*
D18*
X49140000Y-38435000D03*
G04 #@! TD*
D19*
G04 #@! TO.C,J7*
X80590000Y-36535000D03*
X80590000Y-39075000D03*
D20*
X80590000Y-41615000D03*
G04 #@! TD*
D19*
G04 #@! TO.C,J2*
X15590000Y-36745000D03*
X15590000Y-39285000D03*
D20*
X15590000Y-41825000D03*
G04 #@! TD*
D21*
G04 #@! TO.C,J3*
X29340000Y-41735000D03*
D19*
X29340000Y-39195000D03*
X31880000Y-41735000D03*
X31880000Y-39195000D03*
X34420000Y-41735000D03*
X34420000Y-39195000D03*
G04 #@! TD*
D21*
G04 #@! TO.C,J6*
X61640000Y-41735000D03*
D19*
X61640000Y-39195000D03*
X64180000Y-41735000D03*
X64180000Y-39195000D03*
X66720000Y-41735000D03*
X66720000Y-39195000D03*
G04 #@! TD*
D20*
G04 #@! TO.C,J9*
X15750000Y-18000000D03*
D19*
X15750000Y-15460000D03*
X18290000Y-18000000D03*
X18290000Y-15460000D03*
X20830000Y-18000000D03*
X20830000Y-15460000D03*
G04 #@! TD*
D20*
G04 #@! TO.C,J10*
X3750000Y-18000000D03*
D19*
X3750000Y-15460000D03*
X6290000Y-18000000D03*
X6290000Y-15460000D03*
X8830000Y-18000000D03*
X8830000Y-15460000D03*
G04 #@! TD*
G04 #@! TO.C,J11*
X34540000Y-18260000D03*
X34540000Y-20800000D03*
X32000000Y-18260000D03*
D21*
X32000000Y-20800000D03*
G04 #@! TD*
D19*
G04 #@! TO.C,J1*
X20550000Y-39195000D03*
X23090000Y-39195000D03*
X20550000Y-41735000D03*
D21*
X23090000Y-41735000D03*
G04 #@! TD*
D19*
G04 #@! TO.C,J8*
X52840000Y-20785000D03*
X52840000Y-18245000D03*
X55380000Y-20785000D03*
D21*
X55380000Y-18245000D03*
G04 #@! TD*
D19*
G04 #@! TO.C,J4*
X49340000Y-25660000D03*
X49340000Y-28200000D03*
X46800000Y-25660000D03*
D21*
X46800000Y-28200000D03*
G04 #@! TD*
D19*
G04 #@! TO.C,J5*
X73000000Y-39195000D03*
X75540000Y-39195000D03*
X73000000Y-41735000D03*
D21*
X75540000Y-41735000D03*
G04 #@! TD*
D22*
G04 #@! TO.C,BT1*
X64912501Y-4000000D03*
X36912501Y-4000000D03*
G04 #@! TD*
D16*
G04 #@! TO.C,D1*
X60600000Y-25200000D03*
D15*
X52980000Y-25200000D03*
G04 #@! TD*
D19*
G04 #@! TO.C,SW2*
X4760000Y-37520000D03*
X7300000Y-37520000D03*
X4760000Y-40060000D03*
X7300000Y-40060000D03*
X4760000Y-42600000D03*
D20*
X7300000Y-42600000D03*
G04 #@! TD*
D12*
G04 #@! TO.C,RV2*
X96500000Y-28500000D03*
X96500000Y-23500000D03*
X96500000Y-18500000D03*
G04 #@! TD*
D23*
G04 #@! TO.C,C1*
X22840000Y-34535000D03*
D24*
X22840000Y-32535000D03*
G04 #@! TD*
D13*
G04 #@! TO.C,C2*
X27840000Y-32535000D03*
X27840000Y-27535000D03*
G04 #@! TD*
G04 #@! TO.C,C3*
X63890000Y-29035000D03*
X63890000Y-34035000D03*
G04 #@! TD*
G04 #@! TO.C,C4*
X67890000Y-34035000D03*
X67890000Y-29035000D03*
G04 #@! TD*
D25*
G04 #@! TO.C,C5*
X15590000Y-29285000D03*
D13*
X18090000Y-29285000D03*
G04 #@! TD*
D26*
G04 #@! TO.C,R1*
X26860000Y-4300000D03*
D27*
X29400000Y-4300000D03*
G04 #@! TD*
G04 #@! TO.C,R3*
X70700000Y-4300000D03*
D26*
X73240000Y-4300000D03*
G04 #@! TD*
D28*
G04 #@! TO.C,SW1*
X8275000Y-30585000D03*
X3775000Y-30585000D03*
X8275000Y-24085000D03*
X3775000Y-24085000D03*
G04 #@! TD*
D29*
G04 #@! TO.C,TP1*
X5900000Y-6100000D03*
X16900000Y-6100000D03*
G04 #@! TD*
G04 #@! TO.C,TP2*
X94100000Y-6100000D03*
X83100000Y-6100000D03*
G04 #@! TD*
D25*
G04 #@! TO.C,U1*
X40390000Y-42435000D03*
D14*
X55630000Y-34815000D03*
X42930000Y-42435000D03*
X53090000Y-34815000D03*
X45470000Y-42435000D03*
X50550000Y-34815000D03*
X48010000Y-42435000D03*
X48010000Y-34815000D03*
X50550000Y-42435000D03*
X45470000Y-34815000D03*
X53090000Y-42435000D03*
X42930000Y-34815000D03*
X55630000Y-42435000D03*
X40390000Y-34815000D03*
G04 #@! TD*
D30*
G04 #@! TO.C,J13*
X33800000Y-25100000D03*
G04 #@! TD*
G04 #@! TO.C,J14*
X40000000Y-9000000D03*
G04 #@! TD*
D20*
G04 #@! TO.C,J15*
X37750000Y-31250000D03*
D19*
X40290000Y-31250000D03*
X42830000Y-31250000D03*
G04 #@! TD*
G04 #@! TO.C,J16*
X58330000Y-31250000D03*
X55790000Y-31250000D03*
D20*
X53250000Y-31250000D03*
G04 #@! TD*
M02*
