G04 #@! TF.GenerationSoftware,KiCad,Pcbnew,(5.0.0)*
G04 #@! TF.CreationDate,2019-02-22T15:53:22+00:00*
G04 #@! TF.ProjectId,Digisynth,4469676973796E74682E6B696361645F,rev?*
G04 #@! TF.SameCoordinates,Original*
G04 #@! TF.FileFunction,Legend,Bot*
G04 #@! TF.FilePolarity,Positive*
%FSLAX46Y46*%
G04 Gerber Fmt 4.6, Leading zero omitted, Abs format (unit mm)*
G04 Created by KiCad (PCBNEW (5.0.0)) date 02/22/19 15:53:22*
%MOMM*%
%LPD*%
G01*
G04 APERTURE LIST*
%ADD10C,0.200000*%
%ADD11C,0.120000*%
%ADD12C,1.500000*%
%ADD13C,0.150000*%
G04 APERTURE END LIST*
D10*
X44700000Y-39100000D02*
X43900000Y-40000000D01*
X45500000Y-40000000D02*
X44700000Y-39100000D01*
X56598571Y-36842857D02*
X55912857Y-36842857D01*
X56405714Y-38042857D02*
X56255714Y-36842857D01*
X55662857Y-38042857D02*
X55562857Y-37242857D01*
X55512857Y-36842857D02*
X55577142Y-36900000D01*
X55527142Y-36957142D01*
X55462857Y-36900000D01*
X55512857Y-36842857D01*
X55527142Y-36957142D01*
X54991428Y-37242857D02*
X55141428Y-38442857D01*
X54998571Y-37300000D02*
X54877142Y-37242857D01*
X54648571Y-37242857D01*
X54541428Y-37300000D01*
X54491428Y-37357142D01*
X54448571Y-37471428D01*
X54491428Y-37814285D01*
X54562857Y-37928571D01*
X54627142Y-37985714D01*
X54748571Y-38042857D01*
X54977142Y-38042857D01*
X55084285Y-37985714D01*
X53991428Y-37928571D02*
X53941428Y-37985714D01*
X54005714Y-38042857D01*
X54055714Y-37985714D01*
X53991428Y-37928571D01*
X54005714Y-38042857D01*
X53912857Y-37300000D02*
X53862857Y-37357142D01*
X53927142Y-37414285D01*
X53977142Y-37357142D01*
X53912857Y-37300000D01*
X53927142Y-37414285D01*
X52370000Y-36842857D02*
X52491428Y-37814285D01*
X52448571Y-37928571D01*
X52398571Y-37985714D01*
X52291428Y-38042857D01*
X52062857Y-38042857D01*
X51941428Y-37985714D01*
X51877142Y-37928571D01*
X51805714Y-37814285D01*
X51684285Y-36842857D01*
X51262857Y-38042857D02*
X51112857Y-36842857D01*
X50577142Y-38042857D01*
X50427142Y-36842857D01*
X50005714Y-38042857D02*
X49855714Y-36842857D01*
X49455714Y-36842857D02*
X48770000Y-36842857D01*
X49262857Y-38042857D02*
X49112857Y-36842857D01*
X46905714Y-37928571D02*
X46970000Y-37985714D01*
X47148571Y-38042857D01*
X47262857Y-38042857D01*
X47427142Y-37985714D01*
X47527142Y-37871428D01*
X47570000Y-37757142D01*
X47598571Y-37528571D01*
X47577142Y-37357142D01*
X47491428Y-37128571D01*
X47420000Y-37014285D01*
X47291428Y-36900000D01*
X47112857Y-36842857D01*
X46998571Y-36842857D01*
X46834285Y-36900000D01*
X46784285Y-36957142D01*
X46027142Y-36842857D02*
X45798571Y-36842857D01*
X45691428Y-36900000D01*
X45591428Y-37014285D01*
X45562857Y-37242857D01*
X45612857Y-37642857D01*
X45698571Y-37871428D01*
X45827142Y-37985714D01*
X45948571Y-38042857D01*
X46177142Y-38042857D01*
X46284285Y-37985714D01*
X46384285Y-37871428D01*
X46412857Y-37642857D01*
X46362857Y-37242857D01*
X46277142Y-37014285D01*
X46148571Y-36900000D01*
X46027142Y-36842857D01*
X45148571Y-38042857D02*
X44998571Y-36842857D01*
X44462857Y-38042857D01*
X44312857Y-36842857D01*
X43912857Y-36842857D02*
X43227142Y-36842857D01*
X43720000Y-38042857D02*
X43570000Y-36842857D01*
X42291428Y-38042857D02*
X42620000Y-37471428D01*
X42977142Y-38042857D02*
X42827142Y-36842857D01*
X42370000Y-36842857D01*
X42262857Y-36900000D01*
X42212857Y-36957142D01*
X42170000Y-37071428D01*
X42191428Y-37242857D01*
X42262857Y-37357142D01*
X42327142Y-37414285D01*
X42448571Y-37471428D01*
X42905714Y-37471428D01*
X41398571Y-36842857D02*
X41170000Y-36842857D01*
X41062857Y-36900000D01*
X40962857Y-37014285D01*
X40934285Y-37242857D01*
X40984285Y-37642857D01*
X41070000Y-37871428D01*
X41198571Y-37985714D01*
X41320000Y-38042857D01*
X41548571Y-38042857D01*
X41655714Y-37985714D01*
X41755714Y-37871428D01*
X41784285Y-37642857D01*
X41734285Y-37242857D01*
X41648571Y-37014285D01*
X41520000Y-36900000D01*
X41398571Y-36842857D01*
X39948571Y-38042857D02*
X40520000Y-38042857D01*
X40370000Y-36842857D01*
X56477142Y-39242857D02*
X56627142Y-40442857D01*
X56484285Y-39300000D02*
X56362857Y-39242857D01*
X56134285Y-39242857D01*
X56027142Y-39300000D01*
X55977142Y-39357142D01*
X55934285Y-39471428D01*
X55977142Y-39814285D01*
X56048571Y-39928571D01*
X56112857Y-39985714D01*
X56234285Y-40042857D01*
X56462857Y-40042857D01*
X56570000Y-39985714D01*
X55491428Y-40042857D02*
X55391428Y-39242857D01*
X55341428Y-38842857D02*
X55405714Y-38900000D01*
X55355714Y-38957142D01*
X55291428Y-38900000D01*
X55341428Y-38842857D01*
X55355714Y-38957142D01*
X54820000Y-39242857D02*
X54920000Y-40042857D01*
X54834285Y-39357142D02*
X54769999Y-39300000D01*
X54648571Y-39242857D01*
X54477142Y-39242857D01*
X54369999Y-39300000D01*
X54327142Y-39414285D01*
X54405714Y-40042857D01*
X53884285Y-39985714D02*
X53777142Y-40042857D01*
X53548571Y-40042857D01*
X53427142Y-39985714D01*
X53355714Y-39871428D01*
X53348571Y-39814285D01*
X53391428Y-39700000D01*
X53498571Y-39642857D01*
X53670000Y-39642857D01*
X53777142Y-39585714D01*
X53819999Y-39471428D01*
X53812857Y-39414285D01*
X53741428Y-39300000D01*
X53620000Y-39242857D01*
X53448571Y-39242857D01*
X53341428Y-39300000D01*
X51948571Y-40042857D02*
X51798571Y-38842857D01*
X51434285Y-40042857D02*
X51355714Y-39414285D01*
X51398571Y-39300000D01*
X51505714Y-39242857D01*
X51677142Y-39242857D01*
X51798571Y-39300000D01*
X51862857Y-39357142D01*
X50348571Y-40042857D02*
X50270000Y-39414285D01*
X50312857Y-39300000D01*
X50420000Y-39242857D01*
X50648571Y-39242857D01*
X50770000Y-39300000D01*
X50341428Y-39985714D02*
X50462857Y-40042857D01*
X50748571Y-40042857D01*
X50855714Y-39985714D01*
X50898571Y-39871428D01*
X50884285Y-39757142D01*
X50812857Y-39642857D01*
X50691428Y-39585714D01*
X50405714Y-39585714D01*
X50284285Y-39528571D01*
X49791428Y-39242857D02*
X49605714Y-40042857D01*
X49220000Y-39242857D01*
X48398571Y-39985714D02*
X48520000Y-40042857D01*
X48748571Y-40042857D01*
X48855714Y-39985714D01*
X48898571Y-39871428D01*
X48841428Y-39414285D01*
X48770000Y-39300000D01*
X48648571Y-39242857D01*
X48420000Y-39242857D01*
X48312857Y-39300000D01*
X48270000Y-39414285D01*
X48284285Y-39528571D01*
X48870000Y-39642857D01*
X46405714Y-40042857D02*
X46327142Y-39414285D01*
X46369999Y-39300000D01*
X46477142Y-39242857D01*
X46705714Y-39242857D01*
X46827142Y-39300000D01*
X46398571Y-39985714D02*
X46519999Y-40042857D01*
X46805714Y-40042857D01*
X46912857Y-39985714D01*
X46955714Y-39871428D01*
X46941428Y-39757142D01*
X46869999Y-39642857D01*
X46748571Y-39585714D01*
X46462857Y-39585714D01*
X46341428Y-39528571D01*
X43105714Y-39242857D02*
X42977142Y-40042857D01*
X42677142Y-39471428D01*
X42519999Y-40042857D01*
X42191428Y-39242857D01*
X41319999Y-40042857D02*
X41241428Y-39414285D01*
X41284285Y-39300000D01*
X41391428Y-39242857D01*
X41619999Y-39242857D01*
X41741428Y-39300000D01*
X41312857Y-39985714D02*
X41434285Y-40042857D01*
X41719999Y-40042857D01*
X41827142Y-39985714D01*
X41869999Y-39871428D01*
X41855714Y-39757142D01*
X41784285Y-39642857D01*
X41662857Y-39585714D01*
X41377142Y-39585714D01*
X41255714Y-39528571D01*
X40762857Y-39242857D02*
X40577142Y-40042857D01*
X40191428Y-39242857D01*
X39369999Y-39985714D02*
X39491428Y-40042857D01*
X39719999Y-40042857D01*
X39827142Y-39985714D01*
X39869999Y-39871428D01*
X39812857Y-39414285D01*
X39741428Y-39300000D01*
X39619999Y-39242857D01*
X39391428Y-39242857D01*
X39284285Y-39300000D01*
X39241428Y-39414285D01*
X39255714Y-39528571D01*
X39841428Y-39642857D01*
X37453809Y-36757142D02*
X37501428Y-36804761D01*
X37644285Y-36852380D01*
X37739523Y-36852380D01*
X37882380Y-36804761D01*
X37977619Y-36709523D01*
X38025238Y-36614285D01*
X38072857Y-36423809D01*
X38072857Y-36280952D01*
X38025238Y-36090476D01*
X37977619Y-35995238D01*
X37882380Y-35900000D01*
X37739523Y-35852380D01*
X37644285Y-35852380D01*
X37501428Y-35900000D01*
X37453809Y-35947619D01*
X36596666Y-36852380D02*
X36596666Y-36328571D01*
X36644285Y-36233333D01*
X36739523Y-36185714D01*
X36930000Y-36185714D01*
X37025238Y-36233333D01*
X36596666Y-36804761D02*
X36691904Y-36852380D01*
X36930000Y-36852380D01*
X37025238Y-36804761D01*
X37072857Y-36709523D01*
X37072857Y-36614285D01*
X37025238Y-36519047D01*
X36930000Y-36471428D01*
X36691904Y-36471428D01*
X36596666Y-36423809D01*
X36120476Y-36185714D02*
X36120476Y-37185714D01*
X36120476Y-36233333D02*
X36025238Y-36185714D01*
X35834761Y-36185714D01*
X35739523Y-36233333D01*
X35691904Y-36280952D01*
X35644285Y-36376190D01*
X35644285Y-36661904D01*
X35691904Y-36757142D01*
X35739523Y-36804761D01*
X35834761Y-36852380D01*
X36025238Y-36852380D01*
X36120476Y-36804761D01*
X35263333Y-36804761D02*
X35168095Y-36852380D01*
X34977619Y-36852380D01*
X34882380Y-36804761D01*
X34834761Y-36709523D01*
X34834761Y-36661904D01*
X34882380Y-36566666D01*
X34977619Y-36519047D01*
X35120476Y-36519047D01*
X35215714Y-36471428D01*
X35263333Y-36376190D01*
X35263333Y-36328571D01*
X35215714Y-36233333D01*
X35120476Y-36185714D01*
X34977619Y-36185714D01*
X34882380Y-36233333D01*
X34406190Y-36757142D02*
X34358571Y-36804761D01*
X34406190Y-36852380D01*
X34453809Y-36804761D01*
X34406190Y-36757142D01*
X34406190Y-36852380D01*
X34406190Y-36233333D02*
X34358571Y-36280952D01*
X34406190Y-36328571D01*
X34453809Y-36280952D01*
X34406190Y-36233333D01*
X34406190Y-36328571D01*
X33263333Y-36185714D02*
X33072857Y-36852380D01*
X32882380Y-36376190D01*
X32691904Y-36852380D01*
X32501428Y-36185714D01*
X32120476Y-36852380D02*
X32120476Y-35852380D01*
X31691904Y-36852380D02*
X31691904Y-36328571D01*
X31739523Y-36233333D01*
X31834761Y-36185714D01*
X31977619Y-36185714D01*
X32072857Y-36233333D01*
X32120476Y-36280952D01*
X31215714Y-36852380D02*
X31215714Y-36185714D01*
X31215714Y-35852380D02*
X31263333Y-35900000D01*
X31215714Y-35947619D01*
X31168095Y-35900000D01*
X31215714Y-35852380D01*
X31215714Y-35947619D01*
X30882380Y-36185714D02*
X30501428Y-36185714D01*
X30739523Y-35852380D02*
X30739523Y-36709523D01*
X30691904Y-36804761D01*
X30596666Y-36852380D01*
X30501428Y-36852380D01*
X29787142Y-36804761D02*
X29882380Y-36852380D01*
X30072857Y-36852380D01*
X30168095Y-36804761D01*
X30215714Y-36709523D01*
X30215714Y-36328571D01*
X30168095Y-36233333D01*
X30072857Y-36185714D01*
X29882380Y-36185714D01*
X29787142Y-36233333D01*
X29739523Y-36328571D01*
X29739523Y-36423809D01*
X30215714Y-36519047D01*
X28406190Y-36852380D02*
X28501428Y-36804761D01*
X28549047Y-36709523D01*
X28549047Y-35852380D01*
X27644285Y-36804761D02*
X27739523Y-36852380D01*
X27930000Y-36852380D01*
X28025238Y-36804761D01*
X28072857Y-36709523D01*
X28072857Y-36328571D01*
X28025238Y-36233333D01*
X27930000Y-36185714D01*
X27739523Y-36185714D01*
X27644285Y-36233333D01*
X27596666Y-36328571D01*
X27596666Y-36423809D01*
X28072857Y-36519047D01*
X26739523Y-36852380D02*
X26739523Y-36328571D01*
X26787142Y-36233333D01*
X26882380Y-36185714D01*
X27072857Y-36185714D01*
X27168095Y-36233333D01*
X26739523Y-36804761D02*
X26834761Y-36852380D01*
X27072857Y-36852380D01*
X27168095Y-36804761D01*
X27215714Y-36709523D01*
X27215714Y-36614285D01*
X27168095Y-36519047D01*
X27072857Y-36471428D01*
X26834761Y-36471428D01*
X26739523Y-36423809D01*
X25834761Y-36852380D02*
X25834761Y-35852380D01*
X25834761Y-36804761D02*
X25930000Y-36852380D01*
X26120476Y-36852380D01*
X26215714Y-36804761D01*
X26263333Y-36757142D01*
X26310952Y-36661904D01*
X26310952Y-36376190D01*
X26263333Y-36280952D01*
X26215714Y-36233333D01*
X26120476Y-36185714D01*
X25930000Y-36185714D01*
X25834761Y-36233333D01*
X24453809Y-36852380D02*
X24549047Y-36804761D01*
X24596666Y-36757142D01*
X24644285Y-36661904D01*
X24644285Y-36376190D01*
X24596666Y-36280952D01*
X24549047Y-36233333D01*
X24453809Y-36185714D01*
X24310952Y-36185714D01*
X24215714Y-36233333D01*
X24168095Y-36280952D01*
X24120476Y-36376190D01*
X24120476Y-36661904D01*
X24168095Y-36757142D01*
X24215714Y-36804761D01*
X24310952Y-36852380D01*
X24453809Y-36852380D01*
X23691904Y-36185714D02*
X23691904Y-36852380D01*
X23691904Y-36280952D02*
X23644285Y-36233333D01*
X23549047Y-36185714D01*
X23406190Y-36185714D01*
X23310952Y-36233333D01*
X23263333Y-36328571D01*
X23263333Y-36852380D01*
X22120476Y-36185714D02*
X21930000Y-36852380D01*
X21739523Y-36376190D01*
X21549047Y-36852380D01*
X21358571Y-36185714D01*
X20977619Y-36852380D02*
X20977619Y-35852380D01*
X20549047Y-36852380D02*
X20549047Y-36328571D01*
X20596666Y-36233333D01*
X20691904Y-36185714D01*
X20834761Y-36185714D01*
X20930000Y-36233333D01*
X20977619Y-36280952D01*
X20072857Y-36852380D02*
X20072857Y-36185714D01*
X20072857Y-35852380D02*
X20120476Y-35900000D01*
X20072857Y-35947619D01*
X20025238Y-35900000D01*
X20072857Y-35852380D01*
X20072857Y-35947619D01*
X19739523Y-36185714D02*
X19358571Y-36185714D01*
X19596666Y-35852380D02*
X19596666Y-36709523D01*
X19549047Y-36804761D01*
X19453809Y-36852380D01*
X19358571Y-36852380D01*
X18644285Y-36804761D02*
X18739523Y-36852380D01*
X18930000Y-36852380D01*
X19025238Y-36804761D01*
X19072857Y-36709523D01*
X19072857Y-36328571D01*
X19025238Y-36233333D01*
X18930000Y-36185714D01*
X18739523Y-36185714D01*
X18644285Y-36233333D01*
X18596666Y-36328571D01*
X18596666Y-36423809D01*
X19072857Y-36519047D01*
X18168095Y-36757142D02*
X18120476Y-36804761D01*
X18168095Y-36852380D01*
X18215714Y-36804761D01*
X18168095Y-36757142D01*
X18168095Y-36852380D01*
X18168095Y-36471428D02*
X18215714Y-35900000D01*
X18168095Y-35852380D01*
X18120476Y-35900000D01*
X18168095Y-36471428D01*
X18168095Y-35852380D01*
X93084285Y-27542857D02*
X93084285Y-26342857D01*
X92398571Y-27542857D01*
X92398571Y-26342857D01*
X91655714Y-27542857D02*
X91770000Y-27485714D01*
X91827142Y-27428571D01*
X91884285Y-27314285D01*
X91884285Y-26971428D01*
X91827142Y-26857142D01*
X91770000Y-26800000D01*
X91655714Y-26742857D01*
X91484285Y-26742857D01*
X91370000Y-26800000D01*
X91312857Y-26857142D01*
X91255714Y-26971428D01*
X91255714Y-27314285D01*
X91312857Y-27428571D01*
X91370000Y-27485714D01*
X91484285Y-27542857D01*
X91655714Y-27542857D01*
X89312857Y-26742857D02*
X89312857Y-27542857D01*
X89827142Y-26742857D02*
X89827142Y-27371428D01*
X89770000Y-27485714D01*
X89655714Y-27542857D01*
X89484285Y-27542857D01*
X89370000Y-27485714D01*
X89312857Y-27428571D01*
X88570000Y-27542857D02*
X88684285Y-27485714D01*
X88741428Y-27371428D01*
X88741428Y-26342857D01*
X88284285Y-26742857D02*
X87827142Y-26742857D01*
X88112857Y-26342857D02*
X88112857Y-27371428D01*
X88055714Y-27485714D01*
X87941428Y-27542857D01*
X87827142Y-27542857D01*
X87427142Y-27542857D02*
X87427142Y-26742857D01*
X87427142Y-26971428D02*
X87370000Y-26857142D01*
X87312857Y-26800000D01*
X87198571Y-26742857D01*
X87084285Y-26742857D01*
X86170000Y-27542857D02*
X86170000Y-26914285D01*
X86227142Y-26800000D01*
X86341428Y-26742857D01*
X86570000Y-26742857D01*
X86684285Y-26800000D01*
X86170000Y-27485714D02*
X86284285Y-27542857D01*
X86570000Y-27542857D01*
X86684285Y-27485714D01*
X86741428Y-27371428D01*
X86741428Y-27257142D01*
X86684285Y-27142857D01*
X86570000Y-27085714D01*
X86284285Y-27085714D01*
X86170000Y-27028571D01*
X85598571Y-27085714D02*
X84684285Y-27085714D01*
X93141428Y-29485714D02*
X93027142Y-29542857D01*
X92798571Y-29542857D01*
X92684285Y-29485714D01*
X92627142Y-29371428D01*
X92627142Y-29314285D01*
X92684285Y-29200000D01*
X92798571Y-29142857D01*
X92970000Y-29142857D01*
X93084285Y-29085714D01*
X93141428Y-28971428D01*
X93141428Y-28914285D01*
X93084285Y-28800000D01*
X92970000Y-28742857D01*
X92798571Y-28742857D01*
X92684285Y-28800000D01*
X91941428Y-29542857D02*
X92055714Y-29485714D01*
X92112857Y-29428571D01*
X92170000Y-29314285D01*
X92170000Y-28971428D01*
X92112857Y-28857142D01*
X92055714Y-28800000D01*
X91941428Y-28742857D01*
X91770000Y-28742857D01*
X91655714Y-28800000D01*
X91598571Y-28857142D01*
X91541428Y-28971428D01*
X91541428Y-29314285D01*
X91598571Y-29428571D01*
X91655714Y-29485714D01*
X91770000Y-29542857D01*
X91941428Y-29542857D01*
X90512857Y-28742857D02*
X90512857Y-29542857D01*
X91027142Y-28742857D02*
X91027142Y-29371428D01*
X90970000Y-29485714D01*
X90855714Y-29542857D01*
X90684285Y-29542857D01*
X90570000Y-29485714D01*
X90512857Y-29428571D01*
X89941428Y-28742857D02*
X89941428Y-29542857D01*
X89941428Y-28857142D02*
X89884285Y-28800000D01*
X89770000Y-28742857D01*
X89598571Y-28742857D01*
X89484285Y-28800000D01*
X89427142Y-28914285D01*
X89427142Y-29542857D01*
X88341428Y-29542857D02*
X88341428Y-28342857D01*
X88341428Y-29485714D02*
X88455714Y-29542857D01*
X88684285Y-29542857D01*
X88798571Y-29485714D01*
X88855714Y-29428571D01*
X88912857Y-29314285D01*
X88912857Y-28971428D01*
X88855714Y-28857142D01*
X88798571Y-28800000D01*
X88684285Y-28742857D01*
X88455714Y-28742857D01*
X88341428Y-28800000D01*
X87027142Y-28742857D02*
X86570000Y-28742857D01*
X86855714Y-29542857D02*
X86855714Y-28514285D01*
X86798571Y-28400000D01*
X86684285Y-28342857D01*
X86570000Y-28342857D01*
X86170000Y-29542857D02*
X86170000Y-28742857D01*
X86170000Y-28342857D02*
X86227142Y-28400000D01*
X86170000Y-28457142D01*
X86112857Y-28400000D01*
X86170000Y-28342857D01*
X86170000Y-28457142D01*
X85427142Y-29542857D02*
X85541428Y-29485714D01*
X85598571Y-29371428D01*
X85598571Y-28342857D01*
X85141428Y-28742857D02*
X84684285Y-28742857D01*
X84970000Y-28342857D02*
X84970000Y-29371428D01*
X84912857Y-29485714D01*
X84798571Y-29542857D01*
X84684285Y-29542857D01*
X83827142Y-29485714D02*
X83941428Y-29542857D01*
X84170000Y-29542857D01*
X84284285Y-29485714D01*
X84341428Y-29371428D01*
X84341428Y-28914285D01*
X84284285Y-28800000D01*
X84170000Y-28742857D01*
X83941428Y-28742857D01*
X83827142Y-28800000D01*
X83770000Y-28914285D01*
X83770000Y-29028571D01*
X84341428Y-29142857D01*
X83255714Y-29542857D02*
X83255714Y-28742857D01*
X83255714Y-28971428D02*
X83198571Y-28857142D01*
X83141428Y-28800000D01*
X83027142Y-28742857D01*
X82912857Y-28742857D01*
X82512857Y-29428571D02*
X82455714Y-29485714D01*
X82512857Y-29542857D01*
X82570000Y-29485714D01*
X82512857Y-29428571D01*
X82512857Y-29542857D01*
X82512857Y-28800000D02*
X82455714Y-28857142D01*
X82512857Y-28914285D01*
X82570000Y-28857142D01*
X82512857Y-28800000D01*
X82512857Y-28914285D01*
X92398571Y-31428571D02*
X92455714Y-31485714D01*
X92627142Y-31542857D01*
X92741428Y-31542857D01*
X92912857Y-31485714D01*
X93027142Y-31371428D01*
X93084285Y-31257142D01*
X93141428Y-31028571D01*
X93141428Y-30857142D01*
X93084285Y-30628571D01*
X93027142Y-30514285D01*
X92912857Y-30400000D01*
X92741428Y-30342857D01*
X92627142Y-30342857D01*
X92455714Y-30400000D01*
X92398571Y-30457142D01*
X91370000Y-31542857D02*
X91370000Y-30914285D01*
X91427142Y-30800000D01*
X91541428Y-30742857D01*
X91770000Y-30742857D01*
X91884285Y-30800000D01*
X91370000Y-31485714D02*
X91484285Y-31542857D01*
X91770000Y-31542857D01*
X91884285Y-31485714D01*
X91941428Y-31371428D01*
X91941428Y-31257142D01*
X91884285Y-31142857D01*
X91770000Y-31085714D01*
X91484285Y-31085714D01*
X91370000Y-31028571D01*
X90798571Y-30742857D02*
X90798571Y-31542857D01*
X90798571Y-30857142D02*
X90741428Y-30800000D01*
X90627142Y-30742857D01*
X90455714Y-30742857D01*
X90341428Y-30800000D01*
X90284285Y-30914285D01*
X90284285Y-31542857D01*
X89655714Y-30342857D02*
X89770000Y-30571428D01*
X89312857Y-30742857D02*
X88855714Y-30742857D01*
X89141428Y-30342857D02*
X89141428Y-31371428D01*
X89084285Y-31485714D01*
X88970000Y-31542857D01*
X88855714Y-31542857D01*
X87541428Y-31542857D02*
X87541428Y-30342857D01*
X87027142Y-31542857D02*
X87027142Y-30914285D01*
X87084285Y-30800000D01*
X87198571Y-30742857D01*
X87370000Y-30742857D01*
X87484285Y-30800000D01*
X87541428Y-30857142D01*
X85998571Y-31485714D02*
X86112857Y-31542857D01*
X86341428Y-31542857D01*
X86455714Y-31485714D01*
X86512857Y-31371428D01*
X86512857Y-30914285D01*
X86455714Y-30800000D01*
X86341428Y-30742857D01*
X86112857Y-30742857D01*
X85998571Y-30800000D01*
X85941428Y-30914285D01*
X85941428Y-31028571D01*
X86512857Y-31142857D01*
X84912857Y-31542857D02*
X84912857Y-30914285D01*
X84970000Y-30800000D01*
X85084285Y-30742857D01*
X85312857Y-30742857D01*
X85427142Y-30800000D01*
X84912857Y-31485714D02*
X85027142Y-31542857D01*
X85312857Y-31542857D01*
X85427142Y-31485714D01*
X85484285Y-31371428D01*
X85484285Y-31257142D01*
X85427142Y-31142857D01*
X85312857Y-31085714D01*
X85027142Y-31085714D01*
X84912857Y-31028571D01*
X84341428Y-31542857D02*
X84341428Y-30742857D01*
X84341428Y-30971428D02*
X84284285Y-30857142D01*
X84227142Y-30800000D01*
X84112857Y-30742857D01*
X83998571Y-30742857D01*
X82684285Y-31542857D02*
X82684285Y-30742857D01*
X82684285Y-30857142D02*
X82627142Y-30800000D01*
X82512857Y-30742857D01*
X82341428Y-30742857D01*
X82227142Y-30800000D01*
X82170000Y-30914285D01*
X82170000Y-31542857D01*
X82170000Y-30914285D02*
X82112857Y-30800000D01*
X81998571Y-30742857D01*
X81827142Y-30742857D01*
X81712857Y-30800000D01*
X81655714Y-30914285D01*
X81655714Y-31542857D01*
X80627142Y-31485714D02*
X80741428Y-31542857D01*
X80970000Y-31542857D01*
X81084285Y-31485714D01*
X81141428Y-31371428D01*
X81141428Y-30914285D01*
X81084285Y-30800000D01*
X80970000Y-30742857D01*
X80741428Y-30742857D01*
X80627142Y-30800000D01*
X80570000Y-30914285D01*
X80570000Y-31028571D01*
X81141428Y-31142857D01*
X79884285Y-31428571D02*
X79827142Y-31485714D01*
X79884285Y-31542857D01*
X79941428Y-31485714D01*
X79884285Y-31428571D01*
X79884285Y-31542857D01*
X80112857Y-30400000D02*
X79998571Y-30342857D01*
X79712857Y-30342857D01*
X79598571Y-30400000D01*
X79541428Y-30514285D01*
X79541428Y-30628571D01*
X79598571Y-30742857D01*
X79655714Y-30800000D01*
X79770000Y-30857142D01*
X79827142Y-30914285D01*
X79884285Y-31028571D01*
X79884285Y-31085714D01*
X93141428Y-33200000D02*
X92570000Y-33200000D01*
X93255714Y-33542857D02*
X92855714Y-32342857D01*
X92455714Y-33542857D01*
X92055714Y-32742857D02*
X92055714Y-33542857D01*
X92055714Y-32857142D02*
X91998571Y-32800000D01*
X91884285Y-32742857D01*
X91712857Y-32742857D01*
X91598571Y-32800000D01*
X91541428Y-32914285D01*
X91541428Y-33542857D01*
X90970000Y-33542857D02*
X90970000Y-32742857D01*
X90970000Y-32342857D02*
X91027142Y-32400000D01*
X90970000Y-32457142D01*
X90912857Y-32400000D01*
X90970000Y-32342857D01*
X90970000Y-32457142D01*
X90398571Y-33542857D02*
X90398571Y-32742857D01*
X90398571Y-32857142D02*
X90341428Y-32800000D01*
X90227142Y-32742857D01*
X90055714Y-32742857D01*
X89941428Y-32800000D01*
X89884285Y-32914285D01*
X89884285Y-33542857D01*
X89884285Y-32914285D02*
X89827142Y-32800000D01*
X89712857Y-32742857D01*
X89541428Y-32742857D01*
X89427142Y-32800000D01*
X89370000Y-32914285D01*
X89370000Y-33542857D01*
X88284285Y-33542857D02*
X88284285Y-32914285D01*
X88341428Y-32800000D01*
X88455714Y-32742857D01*
X88684285Y-32742857D01*
X88798571Y-32800000D01*
X88284285Y-33485714D02*
X88398571Y-33542857D01*
X88684285Y-33542857D01*
X88798571Y-33485714D01*
X88855714Y-33371428D01*
X88855714Y-33257142D01*
X88798571Y-33142857D01*
X88684285Y-33085714D01*
X88398571Y-33085714D01*
X88284285Y-33028571D01*
X87541428Y-33542857D02*
X87655714Y-33485714D01*
X87712857Y-33371428D01*
X87712857Y-32342857D01*
X87141428Y-33485714D02*
X87027142Y-33542857D01*
X86798571Y-33542857D01*
X86684285Y-33485714D01*
X86627142Y-33371428D01*
X86627142Y-33314285D01*
X86684285Y-33200000D01*
X86798571Y-33142857D01*
X86970000Y-33142857D01*
X87084285Y-33085714D01*
X87141428Y-32971428D01*
X87141428Y-32914285D01*
X87084285Y-32800000D01*
X86970000Y-32742857D01*
X86798571Y-32742857D01*
X86684285Y-32800000D01*
X85255714Y-33485714D02*
X85141428Y-33542857D01*
X84912857Y-33542857D01*
X84798571Y-33485714D01*
X84741428Y-33371428D01*
X84741428Y-33314285D01*
X84798571Y-33200000D01*
X84912857Y-33142857D01*
X85084285Y-33142857D01*
X85198571Y-33085714D01*
X85255714Y-32971428D01*
X85255714Y-32914285D01*
X85198571Y-32800000D01*
X85084285Y-32742857D01*
X84912857Y-32742857D01*
X84798571Y-32800000D01*
X84398571Y-32742857D02*
X83941428Y-32742857D01*
X84227142Y-32342857D02*
X84227142Y-33371428D01*
X84170000Y-33485714D01*
X84055714Y-33542857D01*
X83941428Y-33542857D01*
X83541428Y-33542857D02*
X83541428Y-32742857D01*
X83541428Y-32342857D02*
X83598571Y-32400000D01*
X83541428Y-32457142D01*
X83484285Y-32400000D01*
X83541428Y-32342857D01*
X83541428Y-32457142D01*
X82798571Y-33542857D02*
X82912857Y-33485714D01*
X82970000Y-33371428D01*
X82970000Y-32342857D01*
X82170000Y-33542857D02*
X82284285Y-33485714D01*
X82341428Y-33371428D01*
X82341428Y-32342857D01*
X80284285Y-33485714D02*
X80398571Y-33542857D01*
X80627142Y-33542857D01*
X80741428Y-33485714D01*
X80798571Y-33428571D01*
X80855714Y-33314285D01*
X80855714Y-32971428D01*
X80798571Y-32857142D01*
X80741428Y-32800000D01*
X80627142Y-32742857D01*
X80398571Y-32742857D01*
X80284285Y-32800000D01*
X79255714Y-33542857D02*
X79255714Y-32914285D01*
X79312857Y-32800000D01*
X79427142Y-32742857D01*
X79655714Y-32742857D01*
X79770000Y-32800000D01*
X79255714Y-33485714D02*
X79370000Y-33542857D01*
X79655714Y-33542857D01*
X79770000Y-33485714D01*
X79827142Y-33371428D01*
X79827142Y-33257142D01*
X79770000Y-33142857D01*
X79655714Y-33085714D01*
X79370000Y-33085714D01*
X79255714Y-33028571D01*
X78684285Y-32742857D02*
X78684285Y-33542857D01*
X78684285Y-32857142D02*
X78627142Y-32800000D01*
X78512857Y-32742857D01*
X78341428Y-32742857D01*
X78227142Y-32800000D01*
X78170000Y-32914285D01*
X78170000Y-33542857D01*
X77598571Y-33428571D02*
X77541428Y-33485714D01*
X77598571Y-33542857D01*
X77655714Y-33485714D01*
X77598571Y-33428571D01*
X77598571Y-33542857D01*
X77598571Y-33085714D02*
X77655714Y-32400000D01*
X77598571Y-32342857D01*
X77541428Y-32400000D01*
X77598571Y-33085714D01*
X77598571Y-32342857D01*
X94755714Y-13842857D02*
X94070000Y-13842857D01*
X94412857Y-15042857D02*
X94412857Y-13842857D01*
X93498571Y-15042857D02*
X93612857Y-14985714D01*
X93670000Y-14928571D01*
X93727142Y-14814285D01*
X93727142Y-14471428D01*
X93670000Y-14357142D01*
X93612857Y-14300000D01*
X93498571Y-14242857D01*
X93327142Y-14242857D01*
X93212857Y-14300000D01*
X93155714Y-14357142D01*
X93098571Y-14471428D01*
X93098571Y-14814285D01*
X93155714Y-14928571D01*
X93212857Y-14985714D01*
X93327142Y-15042857D01*
X93498571Y-15042857D01*
X91727142Y-14985714D02*
X91612857Y-15042857D01*
X91384285Y-15042857D01*
X91270000Y-14985714D01*
X91212857Y-14871428D01*
X91212857Y-14814285D01*
X91270000Y-14700000D01*
X91384285Y-14642857D01*
X91555714Y-14642857D01*
X91670000Y-14585714D01*
X91727142Y-14471428D01*
X91727142Y-14414285D01*
X91670000Y-14300000D01*
X91555714Y-14242857D01*
X91384285Y-14242857D01*
X91270000Y-14300000D01*
X90870000Y-14242857D02*
X90412857Y-14242857D01*
X90698571Y-13842857D02*
X90698571Y-14871428D01*
X90641428Y-14985714D01*
X90527142Y-15042857D01*
X90412857Y-15042857D01*
X89498571Y-15042857D02*
X89498571Y-14414285D01*
X89555714Y-14300000D01*
X89670000Y-14242857D01*
X89898571Y-14242857D01*
X90012857Y-14300000D01*
X89498571Y-14985714D02*
X89612857Y-15042857D01*
X89898571Y-15042857D01*
X90012857Y-14985714D01*
X90070000Y-14871428D01*
X90070000Y-14757142D01*
X90012857Y-14642857D01*
X89898571Y-14585714D01*
X89612857Y-14585714D01*
X89498571Y-14528571D01*
X88927142Y-15042857D02*
X88927142Y-14242857D01*
X88927142Y-14471428D02*
X88870000Y-14357142D01*
X88812857Y-14300000D01*
X88698571Y-14242857D01*
X88584285Y-14242857D01*
X88355714Y-14242857D02*
X87898571Y-14242857D01*
X88184285Y-13842857D02*
X88184285Y-14871428D01*
X88127142Y-14985714D01*
X88012857Y-15042857D01*
X87898571Y-15042857D01*
X87441428Y-14985714D02*
X87441428Y-15042857D01*
X87498571Y-15157142D01*
X87555714Y-15214285D01*
X86070000Y-14985714D02*
X85955714Y-15042857D01*
X85727142Y-15042857D01*
X85612857Y-14985714D01*
X85555714Y-14871428D01*
X85555714Y-14814285D01*
X85612857Y-14700000D01*
X85727142Y-14642857D01*
X85898571Y-14642857D01*
X86012857Y-14585714D01*
X86070000Y-14471428D01*
X86070000Y-14414285D01*
X86012857Y-14300000D01*
X85898571Y-14242857D01*
X85727142Y-14242857D01*
X85612857Y-14300000D01*
X84584285Y-14985714D02*
X84698571Y-15042857D01*
X84927142Y-15042857D01*
X85041428Y-14985714D01*
X85098571Y-14871428D01*
X85098571Y-14414285D01*
X85041428Y-14300000D01*
X84927142Y-14242857D01*
X84698571Y-14242857D01*
X84584285Y-14300000D01*
X84527142Y-14414285D01*
X84527142Y-14528571D01*
X85098571Y-14642857D01*
X83841428Y-15042857D02*
X83955714Y-14985714D01*
X84012857Y-14871428D01*
X84012857Y-13842857D01*
X82927142Y-14985714D02*
X83041428Y-15042857D01*
X83270000Y-15042857D01*
X83384285Y-14985714D01*
X83441428Y-14871428D01*
X83441428Y-14414285D01*
X83384285Y-14300000D01*
X83270000Y-14242857D01*
X83041428Y-14242857D01*
X82927142Y-14300000D01*
X82870000Y-14414285D01*
X82870000Y-14528571D01*
X83441428Y-14642857D01*
X81841428Y-14985714D02*
X81955714Y-15042857D01*
X82184285Y-15042857D01*
X82298571Y-14985714D01*
X82355714Y-14928571D01*
X82412857Y-14814285D01*
X82412857Y-14471428D01*
X82355714Y-14357142D01*
X82298571Y-14300000D01*
X82184285Y-14242857D01*
X81955714Y-14242857D01*
X81841428Y-14300000D01*
X81498571Y-14242857D02*
X81041428Y-14242857D01*
X81327142Y-13842857D02*
X81327142Y-14871428D01*
X81270000Y-14985714D01*
X81155714Y-15042857D01*
X81041428Y-15042857D01*
X80641428Y-14928571D02*
X80584285Y-14985714D01*
X80641428Y-15042857D01*
X80698571Y-14985714D01*
X80641428Y-14928571D01*
X80641428Y-15042857D01*
X80641428Y-14300000D02*
X80584285Y-14357142D01*
X80641428Y-14414285D01*
X80698571Y-14357142D01*
X80641428Y-14300000D01*
X80641428Y-14414285D01*
X94584285Y-16928571D02*
X94527142Y-16985714D01*
X94584285Y-17042857D01*
X94641428Y-16985714D01*
X94584285Y-16928571D01*
X94584285Y-17042857D01*
X93270000Y-16242857D02*
X92812857Y-16242857D01*
X93098571Y-15842857D02*
X93098571Y-16871428D01*
X93041428Y-16985714D01*
X92927142Y-17042857D01*
X92812857Y-17042857D01*
X91898571Y-16242857D02*
X91898571Y-17042857D01*
X92412857Y-16242857D02*
X92412857Y-16871428D01*
X92355714Y-16985714D01*
X92241428Y-17042857D01*
X92070000Y-17042857D01*
X91955714Y-16985714D01*
X91898571Y-16928571D01*
X91327142Y-16242857D02*
X91327142Y-17042857D01*
X91327142Y-16357142D02*
X91270000Y-16300000D01*
X91155714Y-16242857D01*
X90984285Y-16242857D01*
X90870000Y-16300000D01*
X90812857Y-16414285D01*
X90812857Y-17042857D01*
X90241428Y-17042857D02*
X90241428Y-16242857D01*
X90241428Y-15842857D02*
X90298571Y-15900000D01*
X90241428Y-15957142D01*
X90184285Y-15900000D01*
X90241428Y-15842857D01*
X90241428Y-15957142D01*
X89670000Y-16242857D02*
X89670000Y-17042857D01*
X89670000Y-16357142D02*
X89612857Y-16300000D01*
X89498571Y-16242857D01*
X89327142Y-16242857D01*
X89212857Y-16300000D01*
X89155714Y-16414285D01*
X89155714Y-17042857D01*
X88070000Y-16242857D02*
X88070000Y-17214285D01*
X88127142Y-17328571D01*
X88184285Y-17385714D01*
X88298571Y-17442857D01*
X88470000Y-17442857D01*
X88584285Y-17385714D01*
X88070000Y-16985714D02*
X88184285Y-17042857D01*
X88412857Y-17042857D01*
X88527142Y-16985714D01*
X88584285Y-16928571D01*
X88641428Y-16814285D01*
X88641428Y-16471428D01*
X88584285Y-16357142D01*
X88527142Y-16300000D01*
X88412857Y-16242857D01*
X88184285Y-16242857D01*
X88070000Y-16300000D01*
X86584285Y-17042857D02*
X86584285Y-16242857D01*
X86584285Y-16357142D02*
X86527142Y-16300000D01*
X86412857Y-16242857D01*
X86241428Y-16242857D01*
X86127142Y-16300000D01*
X86070000Y-16414285D01*
X86070000Y-17042857D01*
X86070000Y-16414285D02*
X86012857Y-16300000D01*
X85898571Y-16242857D01*
X85727142Y-16242857D01*
X85612857Y-16300000D01*
X85555714Y-16414285D01*
X85555714Y-17042857D01*
X84527142Y-16985714D02*
X84641428Y-17042857D01*
X84870000Y-17042857D01*
X84984285Y-16985714D01*
X85041428Y-16871428D01*
X85041428Y-16414285D01*
X84984285Y-16300000D01*
X84870000Y-16242857D01*
X84641428Y-16242857D01*
X84527142Y-16300000D01*
X84470000Y-16414285D01*
X84470000Y-16528571D01*
X85041428Y-16642857D01*
X84127142Y-16242857D02*
X83670000Y-16242857D01*
X83955714Y-15842857D02*
X83955714Y-16871428D01*
X83898571Y-16985714D01*
X83784285Y-17042857D01*
X83670000Y-17042857D01*
X83270000Y-17042857D02*
X83270000Y-15842857D01*
X82755714Y-17042857D02*
X82755714Y-16414285D01*
X82812857Y-16300000D01*
X82927142Y-16242857D01*
X83098571Y-16242857D01*
X83212857Y-16300000D01*
X83270000Y-16357142D01*
X82012857Y-17042857D02*
X82127142Y-16985714D01*
X82184285Y-16928571D01*
X82241428Y-16814285D01*
X82241428Y-16471428D01*
X82184285Y-16357142D01*
X82127142Y-16300000D01*
X82012857Y-16242857D01*
X81841428Y-16242857D01*
X81727142Y-16300000D01*
X81670000Y-16357142D01*
X81612857Y-16471428D01*
X81612857Y-16814285D01*
X81670000Y-16928571D01*
X81727142Y-16985714D01*
X81841428Y-17042857D01*
X82012857Y-17042857D01*
X80584285Y-17042857D02*
X80584285Y-15842857D01*
X80584285Y-16985714D02*
X80698571Y-17042857D01*
X80927142Y-17042857D01*
X81041428Y-16985714D01*
X81098571Y-16928571D01*
X81155714Y-16814285D01*
X81155714Y-16471428D01*
X81098571Y-16357142D01*
X81041428Y-16300000D01*
X80927142Y-16242857D01*
X80698571Y-16242857D01*
X80584285Y-16300000D01*
X94584285Y-18928571D02*
X94527142Y-18985714D01*
X94584285Y-19042857D01*
X94641428Y-18985714D01*
X94584285Y-18928571D01*
X94584285Y-19042857D01*
X93270000Y-18242857D02*
X92812857Y-18242857D01*
X93098571Y-19042857D02*
X93098571Y-18014285D01*
X93041428Y-17900000D01*
X92927142Y-17842857D01*
X92812857Y-17842857D01*
X92412857Y-19042857D02*
X92412857Y-18242857D01*
X92412857Y-18471428D02*
X92355714Y-18357142D01*
X92298571Y-18300000D01*
X92184285Y-18242857D01*
X92070000Y-18242857D01*
X91212857Y-18985714D02*
X91327142Y-19042857D01*
X91555714Y-19042857D01*
X91670000Y-18985714D01*
X91727142Y-18871428D01*
X91727142Y-18414285D01*
X91670000Y-18300000D01*
X91555714Y-18242857D01*
X91327142Y-18242857D01*
X91212857Y-18300000D01*
X91155714Y-18414285D01*
X91155714Y-18528571D01*
X91727142Y-18642857D01*
X90127142Y-18242857D02*
X90127142Y-19442857D01*
X90127142Y-18985714D02*
X90241428Y-19042857D01*
X90470000Y-19042857D01*
X90584285Y-18985714D01*
X90641428Y-18928571D01*
X90698571Y-18814285D01*
X90698571Y-18471428D01*
X90641428Y-18357142D01*
X90584285Y-18300000D01*
X90470000Y-18242857D01*
X90241428Y-18242857D01*
X90127142Y-18300000D01*
X89555714Y-18928571D02*
X89498571Y-18985714D01*
X89555714Y-19042857D01*
X89612857Y-18985714D01*
X89555714Y-18928571D01*
X89555714Y-19042857D01*
X88070000Y-19042857D02*
X88070000Y-18242857D01*
X88070000Y-18471428D02*
X88012857Y-18357142D01*
X87955714Y-18300000D01*
X87841428Y-18242857D01*
X87727142Y-18242857D01*
X86812857Y-19042857D02*
X86812857Y-18414285D01*
X86870000Y-18300000D01*
X86984285Y-18242857D01*
X87212857Y-18242857D01*
X87327142Y-18300000D01*
X86812857Y-18985714D02*
X86927142Y-19042857D01*
X87212857Y-19042857D01*
X87327142Y-18985714D01*
X87384285Y-18871428D01*
X87384285Y-18757142D01*
X87327142Y-18642857D01*
X87212857Y-18585714D01*
X86927142Y-18585714D01*
X86812857Y-18528571D01*
X86241428Y-18242857D02*
X86241428Y-19042857D01*
X86241428Y-18357142D02*
X86184285Y-18300000D01*
X86070000Y-18242857D01*
X85898571Y-18242857D01*
X85784285Y-18300000D01*
X85727142Y-18414285D01*
X85727142Y-19042857D01*
X84641428Y-18242857D02*
X84641428Y-19214285D01*
X84698571Y-19328571D01*
X84755714Y-19385714D01*
X84870000Y-19442857D01*
X85041428Y-19442857D01*
X85155714Y-19385714D01*
X84641428Y-18985714D02*
X84755714Y-19042857D01*
X84984285Y-19042857D01*
X85098571Y-18985714D01*
X85155714Y-18928571D01*
X85212857Y-18814285D01*
X85212857Y-18471428D01*
X85155714Y-18357142D01*
X85098571Y-18300000D01*
X84984285Y-18242857D01*
X84755714Y-18242857D01*
X84641428Y-18300000D01*
X83612857Y-18985714D02*
X83727142Y-19042857D01*
X83955714Y-19042857D01*
X84070000Y-18985714D01*
X84127142Y-18871428D01*
X84127142Y-18414285D01*
X84070000Y-18300000D01*
X83955714Y-18242857D01*
X83727142Y-18242857D01*
X83612857Y-18300000D01*
X83555714Y-18414285D01*
X83555714Y-18528571D01*
X84127142Y-18642857D01*
X94584285Y-20928571D02*
X94527142Y-20985714D01*
X94584285Y-21042857D01*
X94641428Y-20985714D01*
X94584285Y-20928571D01*
X94584285Y-21042857D01*
X93098571Y-21042857D02*
X93098571Y-20242857D01*
X93098571Y-20357142D02*
X93041428Y-20300000D01*
X92927142Y-20242857D01*
X92755714Y-20242857D01*
X92641428Y-20300000D01*
X92584285Y-20414285D01*
X92584285Y-21042857D01*
X92584285Y-20414285D02*
X92527142Y-20300000D01*
X92412857Y-20242857D01*
X92241428Y-20242857D01*
X92127142Y-20300000D01*
X92070000Y-20414285D01*
X92070000Y-21042857D01*
X91498571Y-21042857D02*
X91498571Y-20242857D01*
X91498571Y-19842857D02*
X91555714Y-19900000D01*
X91498571Y-19957142D01*
X91441428Y-19900000D01*
X91498571Y-19842857D01*
X91498571Y-19957142D01*
X91041428Y-21042857D02*
X90412857Y-20242857D01*
X91041428Y-20242857D02*
X90412857Y-21042857D01*
X89498571Y-20985714D02*
X89612857Y-21042857D01*
X89841428Y-21042857D01*
X89955714Y-20985714D01*
X90012857Y-20871428D01*
X90012857Y-20414285D01*
X89955714Y-20300000D01*
X89841428Y-20242857D01*
X89612857Y-20242857D01*
X89498571Y-20300000D01*
X89441428Y-20414285D01*
X89441428Y-20528571D01*
X90012857Y-20642857D01*
X88927142Y-21042857D02*
X88927142Y-20242857D01*
X88927142Y-20471428D02*
X88870000Y-20357142D01*
X88812857Y-20300000D01*
X88698571Y-20242857D01*
X88584285Y-20242857D01*
X86755714Y-20242857D02*
X86755714Y-21042857D01*
X87270000Y-20242857D02*
X87270000Y-20871428D01*
X87212857Y-20985714D01*
X87098571Y-21042857D01*
X86927142Y-21042857D01*
X86812857Y-20985714D01*
X86755714Y-20928571D01*
X86184285Y-20242857D02*
X86184285Y-21042857D01*
X86184285Y-20357142D02*
X86127142Y-20300000D01*
X86012857Y-20242857D01*
X85841428Y-20242857D01*
X85727142Y-20300000D01*
X85670000Y-20414285D01*
X85670000Y-21042857D01*
X85098571Y-21042857D02*
X85098571Y-20242857D01*
X85098571Y-19842857D02*
X85155714Y-19900000D01*
X85098571Y-19957142D01*
X85041428Y-19900000D01*
X85098571Y-19842857D01*
X85098571Y-19957142D01*
X84698571Y-20242857D02*
X84241428Y-20242857D01*
X84527142Y-19842857D02*
X84527142Y-20871428D01*
X84470000Y-20985714D01*
X84355714Y-21042857D01*
X84241428Y-21042857D01*
X94584285Y-22928571D02*
X94527142Y-22985714D01*
X94584285Y-23042857D01*
X94641428Y-22985714D01*
X94584285Y-22928571D01*
X94584285Y-23042857D01*
X92584285Y-23042857D02*
X92584285Y-22414285D01*
X92641428Y-22300000D01*
X92755714Y-22242857D01*
X92984285Y-22242857D01*
X93098571Y-22300000D01*
X92584285Y-22985714D02*
X92698571Y-23042857D01*
X92984285Y-23042857D01*
X93098571Y-22985714D01*
X93155714Y-22871428D01*
X93155714Y-22757142D01*
X93098571Y-22642857D01*
X92984285Y-22585714D01*
X92698571Y-22585714D01*
X92584285Y-22528571D01*
X91498571Y-22242857D02*
X91498571Y-23042857D01*
X92012857Y-22242857D02*
X92012857Y-22871428D01*
X91955714Y-22985714D01*
X91841428Y-23042857D01*
X91670000Y-23042857D01*
X91555714Y-22985714D01*
X91498571Y-22928571D01*
X90412857Y-23042857D02*
X90412857Y-21842857D01*
X90412857Y-22985714D02*
X90527142Y-23042857D01*
X90755714Y-23042857D01*
X90870000Y-22985714D01*
X90927142Y-22928571D01*
X90984285Y-22814285D01*
X90984285Y-22471428D01*
X90927142Y-22357142D01*
X90870000Y-22300000D01*
X90755714Y-22242857D01*
X90527142Y-22242857D01*
X90412857Y-22300000D01*
X89841428Y-23042857D02*
X89841428Y-22242857D01*
X89841428Y-21842857D02*
X89898571Y-21900000D01*
X89841428Y-21957142D01*
X89784285Y-21900000D01*
X89841428Y-21842857D01*
X89841428Y-21957142D01*
X89098571Y-23042857D02*
X89212857Y-22985714D01*
X89270000Y-22928571D01*
X89327142Y-22814285D01*
X89327142Y-22471428D01*
X89270000Y-22357142D01*
X89212857Y-22300000D01*
X89098571Y-22242857D01*
X88927142Y-22242857D01*
X88812857Y-22300000D01*
X88755714Y-22357142D01*
X88698571Y-22471428D01*
X88698571Y-22814285D01*
X88755714Y-22928571D01*
X88812857Y-22985714D01*
X88927142Y-23042857D01*
X89098571Y-23042857D01*
X86755714Y-22985714D02*
X86870000Y-23042857D01*
X87098571Y-23042857D01*
X87212857Y-22985714D01*
X87270000Y-22928571D01*
X87327142Y-22814285D01*
X87327142Y-22471428D01*
X87270000Y-22357142D01*
X87212857Y-22300000D01*
X87098571Y-22242857D01*
X86870000Y-22242857D01*
X86755714Y-22300000D01*
X86241428Y-23042857D02*
X86241428Y-21842857D01*
X85727142Y-23042857D02*
X85727142Y-22414285D01*
X85784285Y-22300000D01*
X85898571Y-22242857D01*
X86070000Y-22242857D01*
X86184285Y-22300000D01*
X86241428Y-22357142D01*
X84641428Y-23042857D02*
X84641428Y-22414285D01*
X84698571Y-22300000D01*
X84812857Y-22242857D01*
X85041428Y-22242857D01*
X85155714Y-22300000D01*
X84641428Y-22985714D02*
X84755714Y-23042857D01*
X85041428Y-23042857D01*
X85155714Y-22985714D01*
X85212857Y-22871428D01*
X85212857Y-22757142D01*
X85155714Y-22642857D01*
X85041428Y-22585714D01*
X84755714Y-22585714D01*
X84641428Y-22528571D01*
X84070000Y-22242857D02*
X84070000Y-23042857D01*
X84070000Y-22357142D02*
X84012857Y-22300000D01*
X83898571Y-22242857D01*
X83727142Y-22242857D01*
X83612857Y-22300000D01*
X83555714Y-22414285D01*
X83555714Y-23042857D01*
X82984285Y-22242857D02*
X82984285Y-23042857D01*
X82984285Y-22357142D02*
X82927142Y-22300000D01*
X82812857Y-22242857D01*
X82641428Y-22242857D01*
X82527142Y-22300000D01*
X82470000Y-22414285D01*
X82470000Y-23042857D01*
X81441428Y-22985714D02*
X81555714Y-23042857D01*
X81784285Y-23042857D01*
X81898571Y-22985714D01*
X81955714Y-22871428D01*
X81955714Y-22414285D01*
X81898571Y-22300000D01*
X81784285Y-22242857D01*
X81555714Y-22242857D01*
X81441428Y-22300000D01*
X81384285Y-22414285D01*
X81384285Y-22528571D01*
X81955714Y-22642857D01*
X80698571Y-23042857D02*
X80812857Y-22985714D01*
X80870000Y-22871428D01*
X80870000Y-21842857D01*
X20095238Y-24935714D02*
X19333333Y-25221428D01*
X20095238Y-25507142D01*
X18333333Y-25602380D02*
X18904761Y-25602380D01*
X18619047Y-25602380D02*
X18619047Y-24602380D01*
X18714285Y-24745238D01*
X18809523Y-24840476D01*
X18904761Y-24888095D01*
X17714285Y-24602380D02*
X17619047Y-24602380D01*
X17523809Y-24650000D01*
X17476190Y-24697619D01*
X17428571Y-24792857D01*
X17380952Y-24983333D01*
X17380952Y-25221428D01*
X17428571Y-25411904D01*
X17476190Y-25507142D01*
X17523809Y-25554761D01*
X17619047Y-25602380D01*
X17714285Y-25602380D01*
X17809523Y-25554761D01*
X17857142Y-25507142D01*
X17904761Y-25411904D01*
X17952380Y-25221428D01*
X17952380Y-24983333D01*
X17904761Y-24792857D01*
X17857142Y-24697619D01*
X17809523Y-24650000D01*
X17714285Y-24602380D01*
X16523809Y-24935714D02*
X16523809Y-25602380D01*
X16952380Y-24935714D02*
X16952380Y-25459523D01*
X16904761Y-25554761D01*
X16809523Y-25602380D01*
X16666666Y-25602380D01*
X16571428Y-25554761D01*
X16523809Y-25507142D01*
X15714285Y-25078571D02*
X16047619Y-25078571D01*
X16047619Y-25602380D02*
X16047619Y-24602380D01*
X15571428Y-24602380D01*
X14428571Y-25078571D02*
X13666666Y-25078571D01*
X13666666Y-25364285D02*
X14428571Y-25364285D01*
X20166666Y-26635714D02*
X20166666Y-27445238D01*
X20214285Y-27540476D01*
X20261904Y-27588095D01*
X20357142Y-27635714D01*
X20500000Y-27635714D01*
X20595238Y-27588095D01*
X20166666Y-27254761D02*
X20261904Y-27302380D01*
X20452380Y-27302380D01*
X20547619Y-27254761D01*
X20595238Y-27207142D01*
X20642857Y-27111904D01*
X20642857Y-26826190D01*
X20595238Y-26730952D01*
X20547619Y-26683333D01*
X20452380Y-26635714D01*
X20261904Y-26635714D01*
X20166666Y-26683333D01*
X19547619Y-27302380D02*
X19642857Y-27254761D01*
X19690476Y-27207142D01*
X19738095Y-27111904D01*
X19738095Y-26826190D01*
X19690476Y-26730952D01*
X19642857Y-26683333D01*
X19547619Y-26635714D01*
X19404761Y-26635714D01*
X19309523Y-26683333D01*
X19261904Y-26730952D01*
X19214285Y-26826190D01*
X19214285Y-27111904D01*
X19261904Y-27207142D01*
X19309523Y-27254761D01*
X19404761Y-27302380D01*
X19547619Y-27302380D01*
X18642857Y-27302380D02*
X18738095Y-27254761D01*
X18785714Y-27207142D01*
X18833333Y-27111904D01*
X18833333Y-26826190D01*
X18785714Y-26730952D01*
X18738095Y-26683333D01*
X18642857Y-26635714D01*
X18500000Y-26635714D01*
X18404761Y-26683333D01*
X18357142Y-26730952D01*
X18309523Y-26826190D01*
X18309523Y-27111904D01*
X18357142Y-27207142D01*
X18404761Y-27254761D01*
X18500000Y-27302380D01*
X18642857Y-27302380D01*
X17452380Y-27302380D02*
X17452380Y-26302380D01*
X17452380Y-27254761D02*
X17547619Y-27302380D01*
X17738095Y-27302380D01*
X17833333Y-27254761D01*
X17880952Y-27207142D01*
X17928571Y-27111904D01*
X17928571Y-26826190D01*
X17880952Y-26730952D01*
X17833333Y-26683333D01*
X17738095Y-26635714D01*
X17547619Y-26635714D01*
X17452380Y-26683333D01*
X15785714Y-27302380D02*
X15785714Y-26302380D01*
X15785714Y-27254761D02*
X15880952Y-27302380D01*
X16071428Y-27302380D01*
X16166666Y-27254761D01*
X16214285Y-27207142D01*
X16261904Y-27111904D01*
X16261904Y-26826190D01*
X16214285Y-26730952D01*
X16166666Y-26683333D01*
X16071428Y-26635714D01*
X15880952Y-26635714D01*
X15785714Y-26683333D01*
X14928571Y-27254761D02*
X15023809Y-27302380D01*
X15214285Y-27302380D01*
X15309523Y-27254761D01*
X15357142Y-27159523D01*
X15357142Y-26778571D01*
X15309523Y-26683333D01*
X15214285Y-26635714D01*
X15023809Y-26635714D01*
X14928571Y-26683333D01*
X14880952Y-26778571D01*
X14880952Y-26873809D01*
X15357142Y-26969047D01*
X14023809Y-27254761D02*
X14119047Y-27302380D01*
X14309523Y-27302380D01*
X14404761Y-27254761D01*
X14452380Y-27207142D01*
X14499999Y-27111904D01*
X14499999Y-26826190D01*
X14452380Y-26730952D01*
X14404761Y-26683333D01*
X14309523Y-26635714D01*
X14119047Y-26635714D01*
X14023809Y-26683333D01*
X13166666Y-27302380D02*
X13166666Y-26778571D01*
X13214285Y-26683333D01*
X13309523Y-26635714D01*
X13499999Y-26635714D01*
X13595238Y-26683333D01*
X13166666Y-27254761D02*
X13261904Y-27302380D01*
X13499999Y-27302380D01*
X13595238Y-27254761D01*
X13642857Y-27159523D01*
X13642857Y-27064285D01*
X13595238Y-26969047D01*
X13499999Y-26921428D01*
X13261904Y-26921428D01*
X13166666Y-26873809D01*
X12785714Y-26635714D02*
X12547619Y-27302380D01*
X12309523Y-26635714D02*
X12547619Y-27302380D01*
X12642857Y-27540476D01*
X12690476Y-27588095D01*
X12785714Y-27635714D01*
X18523809Y-21304761D02*
X18428571Y-21352380D01*
X18238095Y-21352380D01*
X18142857Y-21304761D01*
X18095238Y-21209523D01*
X18095238Y-21161904D01*
X18142857Y-21066666D01*
X18238095Y-21019047D01*
X18380952Y-21019047D01*
X18476190Y-20971428D01*
X18523809Y-20876190D01*
X18523809Y-20828571D01*
X18476190Y-20733333D01*
X18380952Y-20685714D01*
X18238095Y-20685714D01*
X18142857Y-20733333D01*
X17809523Y-20685714D02*
X17428571Y-20685714D01*
X17666666Y-20352380D02*
X17666666Y-21209523D01*
X17619047Y-21304761D01*
X17523809Y-21352380D01*
X17428571Y-21352380D01*
X16952380Y-21352380D02*
X17047619Y-21304761D01*
X17095238Y-21257142D01*
X17142857Y-21161904D01*
X17142857Y-20876190D01*
X17095238Y-20780952D01*
X17047619Y-20733333D01*
X16952380Y-20685714D01*
X16809523Y-20685714D01*
X16714285Y-20733333D01*
X16666666Y-20780952D01*
X16619047Y-20876190D01*
X16619047Y-21161904D01*
X16666666Y-21257142D01*
X16714285Y-21304761D01*
X16809523Y-21352380D01*
X16952380Y-21352380D01*
X16190476Y-21352380D02*
X16190476Y-20685714D01*
X16190476Y-20876190D02*
X16142857Y-20780952D01*
X16095238Y-20733333D01*
X16000000Y-20685714D01*
X15904761Y-20685714D01*
X15190476Y-21304761D02*
X15285714Y-21352380D01*
X15476190Y-21352380D01*
X15571428Y-21304761D01*
X15619047Y-21209523D01*
X15619047Y-20828571D01*
X15571428Y-20733333D01*
X15476190Y-20685714D01*
X15285714Y-20685714D01*
X15190476Y-20733333D01*
X15142857Y-20828571D01*
X15142857Y-20923809D01*
X15619047Y-21019047D01*
X13952380Y-20685714D02*
X13952380Y-21542857D01*
X14000000Y-21638095D01*
X14095238Y-21685714D01*
X14142857Y-21685714D01*
X13952380Y-20352380D02*
X14000000Y-20400000D01*
X13952380Y-20447619D01*
X13904761Y-20400000D01*
X13952380Y-20352380D01*
X13952380Y-20447619D01*
X13047619Y-20685714D02*
X13047619Y-21352380D01*
X13476190Y-20685714D02*
X13476190Y-21209523D01*
X13428571Y-21304761D01*
X13333333Y-21352380D01*
X13190476Y-21352380D01*
X13095238Y-21304761D01*
X13047619Y-21257142D01*
X12571428Y-21352380D02*
X12571428Y-20685714D01*
X12571428Y-20780952D02*
X12523809Y-20733333D01*
X12428571Y-20685714D01*
X12285714Y-20685714D01*
X12190476Y-20733333D01*
X12142857Y-20828571D01*
X12142857Y-21352380D01*
X12142857Y-20828571D02*
X12095238Y-20733333D01*
X12000000Y-20685714D01*
X11857142Y-20685714D01*
X11761904Y-20733333D01*
X11714285Y-20828571D01*
X11714285Y-21352380D01*
X11238095Y-20685714D02*
X11238095Y-21685714D01*
X11238095Y-20733333D02*
X11142857Y-20685714D01*
X10952380Y-20685714D01*
X10857142Y-20733333D01*
X10809523Y-20780952D01*
X10761904Y-20876190D01*
X10761904Y-21161904D01*
X10809523Y-21257142D01*
X10857142Y-21304761D01*
X10952380Y-21352380D01*
X11142857Y-21352380D01*
X11238095Y-21304761D01*
X9952380Y-21304761D02*
X10047619Y-21352380D01*
X10238095Y-21352380D01*
X10333333Y-21304761D01*
X10380952Y-21209523D01*
X10380952Y-20828571D01*
X10333333Y-20733333D01*
X10238095Y-20685714D01*
X10047619Y-20685714D01*
X9952380Y-20733333D01*
X9904761Y-20828571D01*
X9904761Y-20923809D01*
X10380952Y-21019047D01*
X9476190Y-21352380D02*
X9476190Y-20685714D01*
X9476190Y-20876190D02*
X9428571Y-20780952D01*
X9380952Y-20733333D01*
X9285714Y-20685714D01*
X9190476Y-20685714D01*
X8904761Y-21304761D02*
X8809523Y-21352380D01*
X8619047Y-21352380D01*
X8523809Y-21304761D01*
X8476190Y-21209523D01*
X8476190Y-21161904D01*
X8523809Y-21066666D01*
X8619047Y-21019047D01*
X8761904Y-21019047D01*
X8857142Y-20971428D01*
X8904761Y-20876190D01*
X8904761Y-20828571D01*
X8857142Y-20733333D01*
X8761904Y-20685714D01*
X8619047Y-20685714D01*
X8523809Y-20733333D01*
X7285714Y-21352380D02*
X7285714Y-20352380D01*
X6857142Y-21352380D02*
X6857142Y-20828571D01*
X6904761Y-20733333D01*
X7000000Y-20685714D01*
X7142857Y-20685714D01*
X7238095Y-20733333D01*
X7285714Y-20780952D01*
X6000000Y-21304761D02*
X6095238Y-21352380D01*
X6285714Y-21352380D01*
X6380952Y-21304761D01*
X6428571Y-21209523D01*
X6428571Y-20828571D01*
X6380952Y-20733333D01*
X6285714Y-20685714D01*
X6095238Y-20685714D01*
X6000000Y-20733333D01*
X5952380Y-20828571D01*
X5952380Y-20923809D01*
X6428571Y-21019047D01*
X5523809Y-21352380D02*
X5523809Y-20685714D01*
X5523809Y-20876190D02*
X5476190Y-20780952D01*
X5428571Y-20733333D01*
X5333333Y-20685714D01*
X5238095Y-20685714D01*
X4523809Y-21304761D02*
X4619047Y-21352380D01*
X4809523Y-21352380D01*
X4904761Y-21304761D01*
X4952380Y-21209523D01*
X4952380Y-20828571D01*
X4904761Y-20733333D01*
X4809523Y-20685714D01*
X4619047Y-20685714D01*
X4523809Y-20733333D01*
X4476190Y-20828571D01*
X4476190Y-20923809D01*
X4952380Y-21019047D01*
X83764285Y-45751190D02*
X83578571Y-45813095D01*
X83269047Y-45813095D01*
X83145238Y-45751190D01*
X83083333Y-45689285D01*
X83021428Y-45565476D01*
X83021428Y-45441666D01*
X83083333Y-45317857D01*
X83145238Y-45255952D01*
X83269047Y-45194047D01*
X83516666Y-45132142D01*
X83640476Y-45070238D01*
X83702380Y-45008333D01*
X83764285Y-44884523D01*
X83764285Y-44760714D01*
X83702380Y-44636904D01*
X83640476Y-44575000D01*
X83516666Y-44513095D01*
X83207142Y-44513095D01*
X83021428Y-44575000D01*
X81969047Y-45751190D02*
X82092857Y-45813095D01*
X82340476Y-45813095D01*
X82464285Y-45751190D01*
X82526190Y-45627380D01*
X82526190Y-45132142D01*
X82464285Y-45008333D01*
X82340476Y-44946428D01*
X82092857Y-44946428D01*
X81969047Y-45008333D01*
X81907142Y-45132142D01*
X81907142Y-45255952D01*
X82526190Y-45379761D01*
X80854761Y-45751190D02*
X80978571Y-45813095D01*
X81226190Y-45813095D01*
X81350000Y-45751190D01*
X81411904Y-45627380D01*
X81411904Y-45132142D01*
X81350000Y-45008333D01*
X81226190Y-44946428D01*
X80978571Y-44946428D01*
X80854761Y-45008333D01*
X80792857Y-45132142D01*
X80792857Y-45255952D01*
X81411904Y-45379761D01*
X79245238Y-45813095D02*
X79245238Y-44946428D01*
X79245238Y-45070238D02*
X79183333Y-45008333D01*
X79059523Y-44946428D01*
X78873809Y-44946428D01*
X78750000Y-45008333D01*
X78688095Y-45132142D01*
X78688095Y-45813095D01*
X78688095Y-45132142D02*
X78626190Y-45008333D01*
X78502380Y-44946428D01*
X78316666Y-44946428D01*
X78192857Y-45008333D01*
X78130952Y-45132142D01*
X78130952Y-45813095D01*
X77016666Y-45751190D02*
X77140476Y-45813095D01*
X77388095Y-45813095D01*
X77511904Y-45751190D01*
X77573809Y-45627380D01*
X77573809Y-45132142D01*
X77511904Y-45008333D01*
X77388095Y-44946428D01*
X77140476Y-44946428D01*
X77016666Y-45008333D01*
X76954761Y-45132142D01*
X76954761Y-45255952D01*
X77573809Y-45379761D01*
X74850000Y-45813095D02*
X74850000Y-45132142D01*
X74911904Y-45008333D01*
X75035714Y-44946428D01*
X75283333Y-44946428D01*
X75407142Y-45008333D01*
X74850000Y-45751190D02*
X74973809Y-45813095D01*
X75283333Y-45813095D01*
X75407142Y-45751190D01*
X75469047Y-45627380D01*
X75469047Y-45503571D01*
X75407142Y-45379761D01*
X75283333Y-45317857D01*
X74973809Y-45317857D01*
X74850000Y-45255952D01*
X74416666Y-44946428D02*
X73921428Y-44946428D01*
X74230952Y-44513095D02*
X74230952Y-45627380D01*
X74169047Y-45751190D01*
X74045238Y-45813095D01*
X73921428Y-45813095D01*
X73488095Y-45689285D02*
X73426190Y-45751190D01*
X73488095Y-45813095D01*
X73550000Y-45751190D01*
X73488095Y-45689285D01*
X73488095Y-45813095D01*
X73488095Y-45008333D02*
X73426190Y-45070238D01*
X73488095Y-45132142D01*
X73550000Y-45070238D01*
X73488095Y-45008333D01*
X73488095Y-45132142D01*
X92554761Y-47096428D02*
X92554761Y-48148809D01*
X92616666Y-48272619D01*
X92678571Y-48334523D01*
X92802380Y-48396428D01*
X92988095Y-48396428D01*
X93111904Y-48334523D01*
X92554761Y-47901190D02*
X92678571Y-47963095D01*
X92926190Y-47963095D01*
X93050000Y-47901190D01*
X93111904Y-47839285D01*
X93173809Y-47715476D01*
X93173809Y-47344047D01*
X93111904Y-47220238D01*
X93050000Y-47158333D01*
X92926190Y-47096428D01*
X92678571Y-47096428D01*
X92554761Y-47158333D01*
X91935714Y-47963095D02*
X91935714Y-47096428D01*
X91935714Y-46663095D02*
X91997619Y-46725000D01*
X91935714Y-46786904D01*
X91873809Y-46725000D01*
X91935714Y-46663095D01*
X91935714Y-46786904D01*
X91502380Y-47096428D02*
X91007142Y-47096428D01*
X91316666Y-46663095D02*
X91316666Y-47777380D01*
X91254761Y-47901190D01*
X91130952Y-47963095D01*
X91007142Y-47963095D01*
X90573809Y-47963095D02*
X90573809Y-46663095D01*
X90016666Y-47963095D02*
X90016666Y-47282142D01*
X90078571Y-47158333D01*
X90202380Y-47096428D01*
X90388095Y-47096428D01*
X90511904Y-47158333D01*
X90573809Y-47220238D01*
X88840476Y-47096428D02*
X88840476Y-47963095D01*
X89397619Y-47096428D02*
X89397619Y-47777380D01*
X89335714Y-47901190D01*
X89211904Y-47963095D01*
X89026190Y-47963095D01*
X88902380Y-47901190D01*
X88840476Y-47839285D01*
X88221428Y-47963095D02*
X88221428Y-46663095D01*
X88221428Y-47158333D02*
X88097619Y-47096428D01*
X87850000Y-47096428D01*
X87726190Y-47158333D01*
X87664285Y-47220238D01*
X87602380Y-47344047D01*
X87602380Y-47715476D01*
X87664285Y-47839285D01*
X87726190Y-47901190D01*
X87850000Y-47963095D01*
X88097619Y-47963095D01*
X88221428Y-47901190D01*
X87045238Y-47839285D02*
X86983333Y-47901190D01*
X87045238Y-47963095D01*
X87107142Y-47901190D01*
X87045238Y-47839285D01*
X87045238Y-47963095D01*
X85869047Y-47901190D02*
X85992857Y-47963095D01*
X86240476Y-47963095D01*
X86364285Y-47901190D01*
X86426190Y-47839285D01*
X86488095Y-47715476D01*
X86488095Y-47344047D01*
X86426190Y-47220238D01*
X86364285Y-47158333D01*
X86240476Y-47096428D01*
X85992857Y-47096428D01*
X85869047Y-47158333D01*
X85126190Y-47963095D02*
X85250000Y-47901190D01*
X85311904Y-47839285D01*
X85373809Y-47715476D01*
X85373809Y-47344047D01*
X85311904Y-47220238D01*
X85250000Y-47158333D01*
X85126190Y-47096428D01*
X84940476Y-47096428D01*
X84816666Y-47158333D01*
X84754761Y-47220238D01*
X84692857Y-47344047D01*
X84692857Y-47715476D01*
X84754761Y-47839285D01*
X84816666Y-47901190D01*
X84940476Y-47963095D01*
X85126190Y-47963095D01*
X84135714Y-47963095D02*
X84135714Y-47096428D01*
X84135714Y-47220238D02*
X84073809Y-47158333D01*
X83950000Y-47096428D01*
X83764285Y-47096428D01*
X83640476Y-47158333D01*
X83578571Y-47282142D01*
X83578571Y-47963095D01*
X83578571Y-47282142D02*
X83516666Y-47158333D01*
X83392857Y-47096428D01*
X83207142Y-47096428D01*
X83083333Y-47158333D01*
X83021428Y-47282142D01*
X83021428Y-47963095D01*
X81473809Y-46601190D02*
X82588095Y-48272619D01*
X81040476Y-47963095D02*
X81040476Y-46663095D01*
X80916666Y-47467857D02*
X80545238Y-47963095D01*
X80545238Y-47096428D02*
X81040476Y-47591666D01*
X80111904Y-47096428D02*
X79430952Y-47096428D01*
X80111904Y-47963095D01*
X79430952Y-47963095D01*
X78378571Y-47963095D02*
X78378571Y-47282142D01*
X78440476Y-47158333D01*
X78564285Y-47096428D01*
X78811904Y-47096428D01*
X78935714Y-47158333D01*
X78378571Y-47901190D02*
X78502380Y-47963095D01*
X78811904Y-47963095D01*
X78935714Y-47901190D01*
X78997619Y-47777380D01*
X78997619Y-47653571D01*
X78935714Y-47529761D01*
X78811904Y-47467857D01*
X78502380Y-47467857D01*
X78378571Y-47405952D01*
X77573809Y-47963095D02*
X77697619Y-47901190D01*
X77759523Y-47777380D01*
X77759523Y-46663095D01*
X76583333Y-47901190D02*
X76707142Y-47963095D01*
X76954761Y-47963095D01*
X77078571Y-47901190D01*
X77140476Y-47777380D01*
X77140476Y-47282142D01*
X77078571Y-47158333D01*
X76954761Y-47096428D01*
X76707142Y-47096428D01*
X76583333Y-47158333D01*
X76521428Y-47282142D01*
X76521428Y-47405952D01*
X77140476Y-47529761D01*
X76026190Y-47901190D02*
X75902380Y-47963095D01*
X75654761Y-47963095D01*
X75530952Y-47901190D01*
X75469047Y-47777380D01*
X75469047Y-47715476D01*
X75530952Y-47591666D01*
X75654761Y-47529761D01*
X75840476Y-47529761D01*
X75964285Y-47467857D01*
X76026190Y-47344047D01*
X76026190Y-47282142D01*
X75964285Y-47158333D01*
X75840476Y-47096428D01*
X75654761Y-47096428D01*
X75530952Y-47158333D01*
X74354761Y-47963095D02*
X74354761Y-47282142D01*
X74416666Y-47158333D01*
X74540476Y-47096428D01*
X74788095Y-47096428D01*
X74911904Y-47158333D01*
X74354761Y-47901190D02*
X74478571Y-47963095D01*
X74788095Y-47963095D01*
X74911904Y-47901190D01*
X74973809Y-47777380D01*
X74973809Y-47653571D01*
X74911904Y-47529761D01*
X74788095Y-47467857D01*
X74478571Y-47467857D01*
X74354761Y-47405952D01*
X73735714Y-47963095D02*
X73735714Y-46663095D01*
X73611904Y-47467857D02*
X73240476Y-47963095D01*
X73240476Y-47096428D02*
X73735714Y-47591666D01*
X71754761Y-46601190D02*
X72869047Y-48272619D01*
X71321428Y-47963095D02*
X71321428Y-46663095D01*
X71011904Y-46663095D01*
X70826190Y-46725000D01*
X70702380Y-46848809D01*
X70640476Y-46972619D01*
X70578571Y-47220238D01*
X70578571Y-47405952D01*
X70640476Y-47653571D01*
X70702380Y-47777380D01*
X70826190Y-47901190D01*
X71011904Y-47963095D01*
X71321428Y-47963095D01*
X70021428Y-47963095D02*
X70021428Y-47096428D01*
X70021428Y-46663095D02*
X70083333Y-46725000D01*
X70021428Y-46786904D01*
X69959523Y-46725000D01*
X70021428Y-46663095D01*
X70021428Y-46786904D01*
X68845238Y-47096428D02*
X68845238Y-48148809D01*
X68907142Y-48272619D01*
X68969047Y-48334523D01*
X69092857Y-48396428D01*
X69278571Y-48396428D01*
X69402380Y-48334523D01*
X68845238Y-47901190D02*
X68969047Y-47963095D01*
X69216666Y-47963095D01*
X69340476Y-47901190D01*
X69402380Y-47839285D01*
X69464285Y-47715476D01*
X69464285Y-47344047D01*
X69402380Y-47220238D01*
X69340476Y-47158333D01*
X69216666Y-47096428D01*
X68969047Y-47096428D01*
X68845238Y-47158333D01*
X68226190Y-47963095D02*
X68226190Y-47096428D01*
X68226190Y-46663095D02*
X68288095Y-46725000D01*
X68226190Y-46786904D01*
X68164285Y-46725000D01*
X68226190Y-46663095D01*
X68226190Y-46786904D01*
X67669047Y-47901190D02*
X67545238Y-47963095D01*
X67297619Y-47963095D01*
X67173809Y-47901190D01*
X67111904Y-47777380D01*
X67111904Y-47715476D01*
X67173809Y-47591666D01*
X67297619Y-47529761D01*
X67483333Y-47529761D01*
X67607142Y-47467857D01*
X67669047Y-47344047D01*
X67669047Y-47282142D01*
X67607142Y-47158333D01*
X67483333Y-47096428D01*
X67297619Y-47096428D01*
X67173809Y-47158333D01*
X66678571Y-47096428D02*
X66369047Y-47963095D01*
X66059523Y-47096428D02*
X66369047Y-47963095D01*
X66492857Y-48272619D01*
X66554761Y-48334523D01*
X66678571Y-48396428D01*
X65564285Y-47096428D02*
X65564285Y-47963095D01*
X65564285Y-47220238D02*
X65502380Y-47158333D01*
X65378571Y-47096428D01*
X65192857Y-47096428D01*
X65069047Y-47158333D01*
X65007142Y-47282142D01*
X65007142Y-47963095D01*
X64573809Y-47096428D02*
X64078571Y-47096428D01*
X64388095Y-46663095D02*
X64388095Y-47777380D01*
X64326190Y-47901190D01*
X64202380Y-47963095D01*
X64078571Y-47963095D01*
X63645238Y-47963095D02*
X63645238Y-46663095D01*
X63088095Y-47963095D02*
X63088095Y-47282142D01*
X63150000Y-47158333D01*
X63273809Y-47096428D01*
X63459523Y-47096428D01*
X63583333Y-47158333D01*
X63645238Y-47220238D01*
X8166666Y-46802380D02*
X8166666Y-45802380D01*
X7928571Y-45802380D01*
X7785714Y-45850000D01*
X7690476Y-45945238D01*
X7642857Y-46040476D01*
X7595238Y-46230952D01*
X7595238Y-46373809D01*
X7642857Y-46564285D01*
X7690476Y-46659523D01*
X7785714Y-46754761D01*
X7928571Y-46802380D01*
X8166666Y-46802380D01*
X7166666Y-46802380D02*
X7166666Y-46135714D01*
X7166666Y-45802380D02*
X7214285Y-45850000D01*
X7166666Y-45897619D01*
X7119047Y-45850000D01*
X7166666Y-45802380D01*
X7166666Y-45897619D01*
X6261904Y-46135714D02*
X6261904Y-46945238D01*
X6309523Y-47040476D01*
X6357142Y-47088095D01*
X6452380Y-47135714D01*
X6595238Y-47135714D01*
X6690476Y-47088095D01*
X6261904Y-46754761D02*
X6357142Y-46802380D01*
X6547619Y-46802380D01*
X6642857Y-46754761D01*
X6690476Y-46707142D01*
X6738095Y-46611904D01*
X6738095Y-46326190D01*
X6690476Y-46230952D01*
X6642857Y-46183333D01*
X6547619Y-46135714D01*
X6357142Y-46135714D01*
X6261904Y-46183333D01*
X5785714Y-46802380D02*
X5785714Y-46135714D01*
X5785714Y-45802380D02*
X5833333Y-45850000D01*
X5785714Y-45897619D01*
X5738095Y-45850000D01*
X5785714Y-45802380D01*
X5785714Y-45897619D01*
X5357142Y-46754761D02*
X5261904Y-46802380D01*
X5071428Y-46802380D01*
X4976190Y-46754761D01*
X4928571Y-46659523D01*
X4928571Y-46611904D01*
X4976190Y-46516666D01*
X5071428Y-46469047D01*
X5214285Y-46469047D01*
X5309523Y-46421428D01*
X5357142Y-46326190D01*
X5357142Y-46278571D01*
X5309523Y-46183333D01*
X5214285Y-46135714D01*
X5071428Y-46135714D01*
X4976190Y-46183333D01*
X4595238Y-46135714D02*
X4357142Y-46802380D01*
X4119047Y-46135714D02*
X4357142Y-46802380D01*
X4452380Y-47040476D01*
X4500000Y-47088095D01*
X4595238Y-47135714D01*
X3738095Y-46135714D02*
X3738095Y-46802380D01*
X3738095Y-46230952D02*
X3690476Y-46183333D01*
X3595238Y-46135714D01*
X3452380Y-46135714D01*
X3357142Y-46183333D01*
X3309523Y-46278571D01*
X3309523Y-46802380D01*
X2976190Y-46135714D02*
X2595238Y-46135714D01*
X2833333Y-45802380D02*
X2833333Y-46659523D01*
X2785714Y-46754761D01*
X2690476Y-46802380D01*
X2595238Y-46802380D01*
X2261904Y-46802380D02*
X2261904Y-45802380D01*
X1833333Y-46802380D02*
X1833333Y-46278571D01*
X1880952Y-46183333D01*
X1976190Y-46135714D01*
X2119047Y-46135714D01*
X2214285Y-46183333D01*
X2261904Y-46230952D01*
X6428571Y-47835714D02*
X6190476Y-48502380D01*
X5952380Y-47835714D01*
X5047619Y-48502380D02*
X5619047Y-48502380D01*
X5333333Y-48502380D02*
X5333333Y-47502380D01*
X5428571Y-47645238D01*
X5523809Y-47740476D01*
X5619047Y-47788095D01*
X4619047Y-48407142D02*
X4571428Y-48454761D01*
X4619047Y-48502380D01*
X4666666Y-48454761D01*
X4619047Y-48407142D01*
X4619047Y-48502380D01*
X3952380Y-47502380D02*
X3857142Y-47502380D01*
X3761904Y-47550000D01*
X3714285Y-47597619D01*
X3666666Y-47692857D01*
X3619047Y-47883333D01*
X3619047Y-48121428D01*
X3666666Y-48311904D01*
X3714285Y-48407142D01*
X3761904Y-48454761D01*
X3857142Y-48502380D01*
X3952380Y-48502380D01*
X4047619Y-48454761D01*
X4095238Y-48407142D01*
X4142857Y-48311904D01*
X4190476Y-48121428D01*
X4190476Y-47883333D01*
X4142857Y-47692857D01*
X4095238Y-47597619D01*
X4047619Y-47550000D01*
X3952380Y-47502380D01*
D11*
G04 #@! TO.C,D4*
X9515000Y-36440000D02*
X12375000Y-36440000D01*
X9515000Y-38360000D02*
X9515000Y-36440000D01*
X12375000Y-38360000D02*
X9515000Y-38360000D01*
G04 #@! TO.C,D3*
X90260000Y-38360000D02*
X87400000Y-38360000D01*
X90260000Y-36440000D02*
X90260000Y-38360000D01*
X87400000Y-36440000D02*
X90260000Y-36440000D01*
G04 #@! TO.C,R9*
X88761252Y-40610000D02*
X88238748Y-40610000D01*
X88761252Y-39190000D02*
X88238748Y-39190000D01*
G04 #@! TO.C,R10*
X11138748Y-39190000D02*
X11661252Y-39190000D01*
X11138748Y-40610000D02*
X11661252Y-40610000D01*
D12*
G04 #@! TO.C,BT1*
X23412501Y-30000000D02*
X29912501Y-30000000D01*
X23412501Y-23500000D02*
X23412501Y-30000000D01*
X29912501Y-1000000D02*
X23412501Y-1000000D01*
X23412501Y-1000000D02*
X23412501Y-7500000D01*
X69912501Y-30000000D02*
X76412501Y-30000000D01*
X76412501Y-30000000D02*
X76412501Y-23500000D01*
X76412501Y-7500000D02*
X76412501Y-1000000D01*
X76412501Y-1000000D02*
X69912501Y-1000000D01*
D13*
X76912501Y-30500000D02*
X76912501Y-500000D01*
X22912501Y-30500000D02*
X76912501Y-30500000D01*
X22912501Y-500000D02*
X22912501Y-30500000D01*
X76912501Y-500000D02*
X22912501Y-500000D01*
G04 #@! TD*
M02*
